<?xml version="1.0" encoding="utf-8"?>
<!-- Generator: Adobe Illustrator 26.0.0, SVG Export Plug-In . SVG Version: 6.00 Build 0)  -->
<svg version="1.1" xmlns="http://www.w3.org/2000/svg" xmlns:xlink="http://www.w3.org/1999/xlink" x="0px" y="0px"
	 viewBox="0 0 595.3 841.9" style="enable-background:new 0 0 595.3 841.9;" xml:space="preserve">
<style type="text/css">
	.st0{display:none;}
	.st1{fill:#FFFFFF;}
	.st2{fill:#010202;}
	.st3{display:inline;fill:#FFFFFF;}
	.st4{display:inline;}
	.st5{display:inline;fill:#010202;}
</style>
<g id="Camada_2">
</g>
<g id="Camada_4" class="st0">
	
		<image style="display:inline;overflow:visible;" width="1024" height="1024" xlink:href="C:\Users\Shaiane\Downloads\ChatGPT Image 1 de jul. de 2025, 22_46_04.png"  transform="matrix(0.4944 0 0 0.4944 48.3406 -72.1047)">
	</image>
</g>
<g id="Camada_3">
</g>
<g id="Camada_1">
</g>
<g id="_x33_">
	<g>
		<path class="st1" d="M625.7,558.1"/>
		<g>
			<path class="st2" d="M409.6,487.8c0.3,0.1,0.6,0.2,0.9,0.4c0.6-2.6,0.5-5.3,0.5-8c-0.1-9.7,0.7-19.3,0.6-29
				c0-2.1,0.4-4.3,0.4-6.4c0-0.9,0-2,0.9-2.6c6.2-1.3,12.4-2.1,18.6-3c0.5-0.1,0.9,0.1,1.2,0.6c0.6,2.1,0,4.4,0.5,6.5
				c-0.5,5.8-0.6,11.6-1,17.4c-0.5,8.3-0.6,16.7-1.3,25c-0.3,3.6-0.4,7.3-0.5,11c-0.1,5.7-0.8,11.3-0.6,17c0.1,1.3,0,2.7-0.6,3.9
				c-0.9-0.1-0.6-0.5-0.5-0.7c0.8,3.3,0,6.9,0.5,10.4c0.2,2.1-0.9,3.2-2.9,3.7c-4.3,1.2-8.6,2.4-12.9,3.7c-2.4,0.7-2.9,0.4-3.8-1.8
				c-6.4-15.7-12.9-31.3-19.7-46.7c-0.2-0.5-0.5-1-1-1.3c-0.1,0-0.2,0.1-0.3,0.1c-0.8,0.7-0.5,1.6-0.5,2.5c-0.1,12,0.7,24,0.5,35.9
				c0,2.5,0.2,4.9,0.2,7.4c-0.1,2.6-0.5,3.1-2.9,3.5c-5.6,0.9-11.2,1.9-16.8,2.8c-2.4,0.4-2.7,0-2.6-2.4c0.2-12.3,1.4-24.5,2-36.8
				c0.4-7.6,0.8-15.3,1.4-22.9c0.5-6.3,0.6-12.6,1.1-18.9c0.3-4.1,0.6-8.3,0.7-12.4c0.1-1.9,0.6-2.8,2.7-3.2
				c4.3-0.6,8.7-1.2,12.9-2.1c2.1-0.5,3.1,0.3,3.8,2.1c2.1,5.3,4.3,10.6,6.5,16c3.6,9,7.5,18,11.2,27
				C408.9,487,408.9,487.7,409.6,487.8z"/>
			<path class="st2" d="M98.7,494.3c-0.1,0.1-0.3,0.2-0.4,0.3c-1,1.7-0.3,3.4-0.2,5.2c0.2,9.2,0.6,18.5,0.6,27.7
				c0.3,1.7-0.1,3.5,0.3,5.3c-0.1,1.9,0.2,3.8,0.3,5.7c0.1,1.3-0.5,2.1-1.8,2.3c-5.9,1.2-11.7,2.3-17.6,3.2c-1.6,0.3-2.1-0.4-2-2
				c0.4-9.6,0.6-19.3,0.8-28.9c0.4-15.1,1.1-30.1,1.4-45.2c0.1-2.9,0.5-5.7,0.4-8.6c0-2.8,0.1-3,3-3.6c3.6-0.8,7.2-1.3,10.8-1.9
				c1.6-0.3,3.3-0.4,4.9-0.9c0.6,0.1,0.8,0.4,0.9,0.9c0.3,2.8,2,5,3.1,7.4c4.6,10.9,9.8,21.6,14.5,32.4c0.4,1,0.8,2.1,1.7,2.8
				c1.1-0.3,0.3-1.4,0.8-2c0.1,0.2,0.5,0.5,0.2,0.8c0.3,0,0.2-0.2,0.2-0.3c0-5.4,0.4-10.7,0.8-16c0.5-7.4,0.6-14.8,1.3-22.2
				c0.2-1.7,0-3.4,0.1-5c0.1-1.5,0.6-2.8,2.4-3.1c5.4-1,10.8-1.9,16.3-2.8c0.3-0.1,0.6,0,0.9,0.2c0.6,3.6,0,7.3,0,10.9
				c0,2-0.3,4-0.4,6c-0.4,13.3-0.8,26.6-1.3,39.9c-0.2,6.5-0.7,12.9-0.6,19.4c0,4-0.6,8-0.5,12c0,1.7-0.7,2.6-2.5,2.9
				c-5,0.9-10,1.8-15,2.9c-1.7,0.4-2.3-0.8-2.9-1.9c-2.2-4.5-4.2-9.2-6.3-13.7c-2.7-6-5.4-11.9-8.1-17.9c-1.5-3.4-3.1-6.7-4.7-10
				C99.9,495.5,99.9,494.5,98.7,494.3z"/>
			<path class="st2" d="M472.5,517.3c0.2,0,0.3,0,0.5,0c2.6,0.7,6.8-1.2,8.8-4c0.2-0.3,0.3-0.6,0.5-0.8c1.2-1.9,2-4,2.5-6.2
				c0.4-2,0-2.6-2-2.4c-2.2,0.2-4.5,0.1-6.7,0.5c-2,0.3-2.6-0.5-2.6-2.3c0.1-4.9,0.4-9.9,1-14.8c0.1-1.3,0.8-2,2.1-2.2
				c8.6-1.3,17.2-2.4,25.8-3.3c2.7-0.3,3.8,0.4,3.7,3c-0.3,12.5-1,24.9-7.1,36.3c-3.1,5.8-7.4,10.6-13.2,13.9
				c-12.2,5.7-23.8,5.1-34.9-2.9c-0.3-0.2-0.7-0.4-1-0.6c-6.2-5.7-8.7-13.2-9.9-21.2c-1.2-8.2-1.2-16.5-0.2-24.7
				c0.2-1.4,0.2-2.8,0.4-4.3c1.6-10.3,4.4-20.2,10.4-29c2.1-3.1,4.9-5.6,7.4-8.3c0.6-0.9,1.6-1.4,2.5-1.8c0.8,0.1,1.3-0.4,1.9-0.8
				c12.1-7.1,25.5-4.5,33.9,6.4c4,5.2,6,11.2,7.2,17.6c0.5,2.4,0.1,2.8-2.3,3.5c-4.9,1.5-9.9,2.6-14.8,4.1c-2.2,0.7-2.6,0.3-3-2
				c-0.5-3.4-1.1-6.8-3.3-9.6c-2.3-3-5.5-3.5-8.7-1.4c-3.8,2.5-5.5,6.4-6.9,10.4c-1.9,5.3-2.5,10.8-2.9,16.4c-0.5,7-0.2,14,1.3,20.9
				c0.6,2.8,1.6,5.5,3.7,7.7C468.3,516.8,470.1,517.9,472.5,517.3z"/>
			<path class="st2" d="M212.7,450.9c0-0.6,0.4-0.9,0.9-0.9c5.7-0.3,11.2-1.5,16.8-2.2c8.3-1,16.6-2.3,24.9-3.2
				c2.5-0.3,5.1-0.7,7.6-0.9c2.3-0.1,2.4,0.2,2.2,2.4c-0.4,5.4-1.2,10.8-1.6,16.2c-0.3,4-0.9,4.6-4.8,4.9c-2.2,0.1-4.3,0.5-6.4,0.8
				c-1.6,0.4-3.3,0.4-5,0.7c-1.1,0.2-1.5,0.8-1.5,2c0.2,22-0.3,44-0.1,65.9c0,1.6-0.6,2.5-2.3,2.7c-6.6,0.9-13.3,1.5-19.9,2.8
				c-2.3,0.4-2.7-0.3-2.5-2.6c0.6-6.3,1.4-12.7,2.1-19c0.9-8.2,1.8-16.5,2.7-24.7c0.7-6.2,1.4-12.3,2.1-18.5
				c0.2-1.8,0.5-3.6,0.7-5.5c0-1.5-1.2-1.3-2.1-1.2c-4.5,0.3-9,0.8-13.5,1.2c-0.6,0-1.2,0.2-1.9,0.2c-2.1,0-2.8-0.7-2.4-2.8
				c1-4.5,1.9-9,2.9-13.5C212.2,454.2,212.8,452.6,212.7,450.9z"/>
			<path class="st2" d="M336,527.6c0.5-6.9,0.9-13.9,1.4-20.8c0.5-7.2,1.1-14.5,1.6-21.7c0.7-12,1.4-24.1,2-36.1
				c0.1-1.4,0.6-2.4,2-2.9c5.4-1.9,10.7-4,16.1-5.9c2.4-0.9,3.1-0.3,3,2.2c-0.2,10.4-0.7,20.8-1.4,31.1c-0.4,6.4-0.7,12.8-1.1,19.1
				c-0.6,9.1-1.2,18.2-1.8,27.2c-0.3,4.8-0.7,9.6-1,14.3c-0.1,1.5-0.7,2.1-2.1,2.3c-4.9,0.7-9.9,1.5-14.8,2.2
				c-0.3-0.4-0.3-0.8,0.2-1.2c3.2-1.3,6.8-1.2,10.1-1.8c0.9-0.2,1.9-0.3,2.8-0.5c1.5-0.3,2.4-1.2,2.5-2.8c0.4-7.6,0.9-15.2,1.5-22.7
				c0.7-8.9,0.9-17.9,1.7-26.8c0.3-3.6,0.4-7.2,0.5-10.8c0.2-9.3,1.2-18.5,1.1-27.8c0-2.8-0.3-3.2-3-2.2c-4.1,1.5-8.3,3-12.4,4.6
				c-1.8,0.7-2.4,1.8-2.5,3.6c-0.8,13.7-1.3,27.5-2.5,41.1c-1.2,13.6-1.6,27.3-3.1,40.9c-0.2,1.7-0.9,3.7,1,5.1
				c0.5,0.3,1.1,0.4,1.1,1.1c-0.3,0-0.6,0.1-0.9,0.1c-0.8,0.3-1.7,0.3-2.5,0c-0.8-0.7-0.3-1.6-0.3-2.4c0.4-1-0.1-2.1,0.3-3.1
				c0-1.1,0.1-2.1,0.1-3.2C336.1,529.3,335.7,528.4,336,527.6z"/>
			<path class="st2" d="M432.2,439.8c-3.6-0.4-7,0.9-10.6,1.2c-2.9,0.3-5.7,1.2-8.6,1.2c-0.1-0.1-0.2-0.2-0.1-0.3
				c0-0.1,0.1-0.2,0.1-0.2c6.1-1,12.2-2,18.4-3c2.1-0.3,2.4,1,2.3,2.6c-0.4,8-0.7,16-1.1,24c-0.4,8-0.9,16-1.3,23.9
				c-0.6,13.7-1.1,27.3-1.6,41c-0.1,2.4-0.9,3.7-3.4,4.3c-4.4,1-8.7,2.4-13,3.8c-2.1,0.7-3.2,0-4-2c-4.6-11.3-9.3-22.6-14-33.8
				c-2-4.9-4.2-9.8-6.3-14.6c0.8-0.1,1.1,0.5,1.4,1.1c3.6,8.4,7.2,16.8,10.8,25.3c3.1,7.3,6.1,14.6,9.1,21.9
				c0.5,1.3,1.3,1.9,2.8,1.5c4.6-1.4,9.1-2.8,13.7-4.1c1.5-0.4,2.3-1.3,2.2-2.9c-0.4-3.4-0.4-6.7,0-10.1c0.4-0.3,0.5-0.8,0.5-1.3
				c-0.2-5.1,0.3-10.2,0.5-15.3c0.3-11.9,1.4-23.7,1.6-35.5c0.1-6,0.7-12.1,0.9-18.1c0-1.4,0.3-2.8,0.4-4.3
				C432,444,432.9,441.9,432.2,439.8z"/>
			<path class="st2" d="M151.2,522.5c0.1-13.7,0.3-27.3,0.4-41c0.1-9.4,0.2-18.9,0.2-28.3c0-2,0.4-3,2.8-3.4
				c14.7-2.5,29.5-4.7,44.3-7.1c1.7-0.3,3.3-0.6,4.9-0.8c2.3-0.4,3.2,0.4,2.9,2.6c-0.8,6.1-1.7,12.1-2.6,18.2
				c-0.2,1.5-0.6,3-0.7,4.5c0,2-1.2,2.4-2.8,2.5c-1.9,0-3.8,0.1-5.8,0.1c-2,0.5-4-0.1-5.9,0.3c-1.5,0-3.1,0.1-4.6,0.1
				c-1.8,0.4-3.5,0.1-5.3,0.2c-0.5-0.1-0.9-0.2-0.6-0.8c1.1-0.8,2.3-0.6,3.5-0.6c5.7-0.2,11.3-0.5,17-0.9c2.2-0.2,3-1.1,3.3-3.2
				c0.8-6.1,1.6-12.2,2.6-18.3c0.5-2.6,0-3.1-2.6-2.7c-11.7,1.7-23.4,3.5-35.1,5.4c-3.6,0.6-7.3,1-10.9,1.9c-3,0.8-3.1,0.8-3.1,4.1
				c0,0.3,0,0.6,0,1c0.4,20.6-0.7,41.3-0.5,61.9c0,1.4,0,2.9-0.8,4.2C151.8,522.5,151.6,522.6,151.2,522.5z"/>
			<path class="st2" d="M229,471.5c-0.2,5.2-1.2,10.3-1.7,15.4c-0.5,4.9-1.1,9.8-1.7,14.7c-0.8,6.9-1.5,13.7-2.3,20.6
				c-0.7,6.1-1.4,12.2-2,18.2c-0.1,1.4,1,1.3,1.8,1.2c2.1-0.3,4.2-0.6,6.4-0.9c4.6-0.6,9.1-1.4,13.7-1.8c1.9-0.2,2.1-1.2,2.1-2.7
				c0-12.6-0.2-25.1,0.1-37.7c0.2-7.9,0.4-15.8,0.4-23.7c0-0.2-0.1-0.5,0-0.7c0.4-1.7-1.2-3.9,0.1-5c1.7-1.5,4.3-1.4,6.6-1.4
				c0.5-0.3,0.9-0.4,1,0.4c-1.7,0.3-3.5,0.6-5.2,0.8c-1.6,0.1-2,0.8-2,2.4c0.1,13.5,0,27.1,0,40.6c0,8.3-0.1,16.7,0,25
				c0,1.9-0.8,2.6-2.4,2.8c-6.9,0.8-13.8,1.7-20.6,2.8c-2.3,0.4-3-0.5-2.7-2.8c1.2-10.9,2.4-21.7,3.7-32.6c1.3-11.3,2.6-22.7,3.9-34
				c0.1-0.6,0.3-1.1,0.4-1.6C228.7,471.3,228.8,471.3,229,471.5z"/>
			<path class="st2" d="M274.6,542.5c-2.2,0.4-4.4,0.7-6.6,1.1c-1.9,0.4-2.7-0.3-2.6-2.3c0.4-7.2,0.7-14.4,1.1-21.6
				c0.4-7.6,0.8-15.2,1.3-22.7c0.8-12.5,1.6-25,2.3-37.5c0-0.4,0-0.8,0-1.2c0.1-5,0.1-5,4.9-6c4.3-0.9,8.6-1.7,12.8-2.7
				c2-0.5,2.6,0.2,2.5,2.1c-0.4,9.9-0.6,19.8-1.1,29.7c-0.1,2.3,0.8,2.1,2.3,1.9c4.1-0.6,8.2-1.2,12.3-1.8c0.2,0.3,0.2,0.5,0.1,0.8
				c-0.7,0.8-1.7,0.9-2.6,1.1c-3.3,0.5-6.6,1.1-10,1.3c-2.7,0.2-3.4-0.4-3.5-3.2c-0.1-2.9,0.2-5.8,0.3-8.6
				c0.1-6.3,0.6-12.6,0.6-18.9c0-2.7-0.3-2.9-3-2.4c-3.8,0.7-7.5,1.6-11.3,2.4c-1.6,0.3-2.5,1.2-2.7,2.9c-0.2,1.3-0.3,2.5-0.3,3.8
				c-0.1,7.4-0.8,14.8-1.3,22.3c-0.4,6.4-0.7,12.8-1.1,19.1c-0.5,8.3-0.7,16.6-1.3,24.9c-0.3,4-0.2,8-0.5,12c-0.2,2.5,0.4,2.9,3,2.7
				c1.2-0.1,2.4-0.5,3.6-0.2C274.2,541.8,274.6,542,274.6,542.5z"/>
			<path class="st2" d="M98.7,494.3c0.8-1.8,1.1,0.3,1.1,0.3c1.4,2.8,2.8,5.6,4.1,8.4c4.1,9.1,8.2,18.2,12.2,27.3
				c1.1,2.5,2.2,5,3.3,7.4c0.6,1.3,1.4,2.1,3.1,1.7c4.9-1.1,9.8-2,14.7-2.9c1.4-0.2,1.8-0.9,1.8-2.2c0.1-5.4,0.3-10.8,0.5-16.3
				c0.3-9.2,0.6-18.5,1-27.7c0.2-4.9,0.1-9.9,0.4-14.8c0.5-8.3,0.8-16.6,1-24.8c0-1.5,0.5-3,0.5-4.5c0.1,0,0.2,0,0.3,0
				c0,3,0.1,6.1,0,9.1c-0.4,13.3-0.9,26.5-1.4,39.8c-0.5,12.9-1,25.9-1.4,38.8c-0.1,2.1-0.8,3.3-3.1,3.7c-4.8,0.7-9.5,1.7-14.3,2.8
				c-2.3,0.5-3.3-0.6-4.1-2.5c-5.6-12.5-11.2-25-16.9-37.5C100.8,498.2,99.7,496.3,98.7,494.3z"/>
			<path class="st2" d="M98.3,527.7c0.3-9.6-0.8-19.2-0.5-28.8c-0.1-1.3-0.9-2.7,0.4-3.8c0,2,0.1,4,0.1,6.1c0.5,3.1-0.1,6.2,0.4,9.3
				c0,3.1,0.1,6.2,0.1,9.4c0.5,2-0.1,4,0.3,6c0.1,3.2,0.2,6.4,0.3,9.6c0,1.1,0.1,2.2,0.2,3.4c0.1,1.4-0.4,2.2-1.9,2.5
				c-5.9,1-11.7,2.2-17.6,3.3c-2.4,0.4-2.8-0.2-2.7-2.5c0.2-6.1,0.5-12.1,0.7-18.2c0.7-21.7,1.3-43.5,2-65.2c0-1.3,0.2-2.5,1.6-2.8
				c5.8-1.3,11.6-2.6,17.6-2.9c-2.5,1.6-5.5,1.2-8.3,1.8c-2.8,0.6-5.6,0.9-8.4,1.6c-1.2,0.3-1.5,1-1.6,2.2c-0.4,5.7-0.2,11.3-0.5,17
				c-0.5,9.6-0.6,19.3-1,28.9c-0.2,5.2,0.1,10.4-0.4,15.5c-0.6,6-0.2,12-0.4,18c0,0.2,0,0.5,0,0.7c-0.5,5.3-0.5,5.4,4.8,4.4
				c4.4-0.8,8.7-1.6,13.1-2.4c1.7-0.3,2.5-1,2.3-2.9c-0.2-1.7,0-3.5,0-5.3C98.2,531,99,529.3,98.3,527.7z"/>
			<path class="st2" d="M371.2,458.6c0.1,10.2-1.1,20.3-1.5,30.5c-0.3,7.4-0.9,14.8-1.4,22.1c-0.6,8.7-1.2,17.5-1.6,26.2
				c-0.1,2.8,1.1,2.5,2.6,2.2c3.9-0.6,7.8-1.3,11.7-2c1.4-0.2,2.8-0.7,4.2-0.7c2.6-0.1,3.1-1.7,3.2-3.8c0.2-2.7-0.4-5.4-0.5-8.1
				c0-4.2,0-8.3,0-12.5c-0.1-7.7-0.3-15.5-0.4-23.2c0-0.5-0.7-1.9,1-1.4c0.2,15.3,0.4,30.6,0.6,45.8c0,3.3,0,3.4-3.3,4
				c-5.6,1-11.3,1.9-16.9,2.9c-2.6,0.4-3.2,0-3-2.7c0.7-12.3,1.3-24.6,2-36.9c0.8-13,1.6-26,2.4-39c0.1-1.8,0.3-3.7,0.5-5.5
				C371.9,457.1,371.4,457.9,371.2,458.6z"/>
			<path class="st2" d="M326.5,514.4c0,1.1-0.1,2.1-0.1,3.2c-0.4,1,0.1,2-0.4,3c0,0.8-0.1,1.5-0.1,2.3c-1-0.1-0.9-0.9-1-1.5
				c-0.1-1.4-0.1-2.7,0.2-4.1c0.3-0.9,0.3-1.9,0.3-2.8c0.1-6.2,0.8-12.4,1.2-18.7c0.5-7.6,1.1-15.2,1.6-22.7
				c0.4-5.7,0.9-11.3,1.2-17c0.3-4,0.4-8,0.7-12c0.1-1.7-0.5-2.5-2.4-2.2c-6,0.9-11.9,2.3-18,3.1c-1.7,0.2-2.2,1.3-2.2,2.9
				c-0.1,3.8-0.1,7.7,0.2,11.5c0.5,6.4,0.2,12.8,0.2,19.2c0,1.1,0.2,2.3-1,3c-0.3-0.1-0.4-0.4-0.3-0.7c-0.3-11.2-0.5-22.4-0.9-33.6
				c-0.1-2.4,0.6-3.5,3.2-3.9c6.7-0.9,13.3-2.2,20-3.5c2-0.4,2.8,0.3,2.6,2.2c-0.5,8.3-1,16.6-1.6,24.9c-0.4,5.4-0.8,10.8-1.2,16.2
				c-0.4,5-0.7,10-1.1,15.1c-0.4,1,0.1,2.1-0.3,3.1c0,1.1-0.1,2.1-0.1,3.2c-0.4,1.2,0.1,2.5-0.4,3.6c0,1-0.1,2.1-0.1,3.1
				C326.5,512.4,327,513.5,326.5,514.4z"/>
			<path class="st2" d="M485.5,534.5c7.6-4.3,12.3-10.9,15.5-18.8c2.8-7,3.8-14.4,4.3-21.9c0.2-2.9,0.3-5.9,0.4-8.8
				c0.1-2-0.6-3-2.8-2.8c-4.7,0.5-9.3,1-14,1.5c-4,0.5-8,1.3-12,1.8c-1.4,0.2-1.9,0.7-2,2c-0.5,4.9-0.9,9.8-0.9,14.8
				c0,1.4,0.4,1.9,2,1.6c2.2-0.4,4.6-0.1,6.9-0.5c2-0.4,2.7,0.7,2.2,2.7c-0.6,2.5-0.9,5-3,6.8c-0.1,0.2-0.3,0.2-0.4,0
				c1-2,1.9-4,2.5-6.1c0.7-2.2-0.1-2.7-2.1-2.5c-2.2,0.2-4.5,0.3-6.7,0.5c-1.9,0.2-2.6-0.4-2.5-2.4c0.4-5.2,0.7-10.4,1-15.6
				c0.1-1.5,1.1-2.1,2.4-2.2c8.9-1.1,17.7-2.3,26.6-3.4c2.6-0.3,3.6,0.6,3.6,3.6c0,3.7-0.1,7.4-0.4,11c-0.7,7.2-1.9,14.4-4.7,21.1
				c-3.2,7.6-7.9,14-15.3,18C485.5,535.2,485.4,534.9,485.5,534.5z"/>
			<path class="st2" d="M472.5,517.3c-3.1,0.9-5.3-0.2-7.6-3.7c-1.8-2.8-2.4-6-3-9.3c-0.6-3.4-0.9-6.9-0.8-10.2
				c0.3-9.8,0.4-19.8,5.2-28.9c0.9-1.8,2.1-3.4,3.6-4.7c4.3-4,9.8-2.9,12,2.6c1,2.6,2.1,5.2,2.1,8c0,1.4,0.8,1.6,1.9,1.3
				c5.4-1.4,10.7-2.9,16.1-4.4c1.5-0.4,1.4-1.7,1.2-2.7c-0.8-4.6-2.1-9-4.3-13.1c-0.8-1.6-1.9-3.1-2.9-4.7c-0.2-0.5,0-0.6,0.5-0.5
				c4.5,5.5,6.5,12.1,7.7,18.9c0.2,1.4-0.3,2.3-1.7,2.7c-5.5,1.5-11,3-16.5,4.6c-2.1,0.6-2.8-0.5-2.9-2.3c-0.2-2.6-0.8-5-1.9-7.3
				c-2.6-5.7-7.8-6.4-11.8-1.6c-3.4,4.1-4.9,9-5.9,14.1c-1.8,9.4-2.1,18.9-0.6,28.3c0.4,2.6,1,5.1,2.2,7.5
				C466.7,515.1,468.9,517.1,472.5,517.3z"/>
			<path class="st2" d="M151.2,522.5c0.1,0,0.3,0,0.4,0c1.3,1,1.2,2.4,1,3.7c-0.6,4.5-0.2,8.9-0.3,13.4c-0.1,1.8,0.8,2.4,2.5,2.1
				c5.7-1,11.3-2.1,17-3.2c1.5-0.3,2.2-1.2,2.1-2.7c-0.5-5.7-0.2-11.3-0.7-17c-0.3-3.8-0.3-7.7-0.2-11.5c0-2.5,0.8-3.2,3.4-3.3
				c4.9-0.1,9.7,0,14.6,0c2.9,0,3.1-0.2,3.3-3.1c0.3-4.4,0.7-8.8,1.2-13.1c0.1-1,0.1-1.9,0.7-2.8c0.2-0.2,0.4-0.4,0.7-0.5
				c1,2.9-0.3,5.8-0.3,8.7c0,3.2-0.6,6.4-0.7,9.5c-0.1,2.2-0.9,3-3,3c-5.2-0.2-10.4-0.2-15.6-0.4c-2.3-0.1-3.1,0.6-3,3
				c0.5,9.4,0.8,18.8,1.3,28.3c0.1,2.1-0.4,3-2.5,3.4c-6.6,1.1-13.1,2.5-19.7,3.7c-1.9,0.4-2.8-0.3-2.7-2.4
				C150.9,534.9,151.1,528.7,151.2,522.5z"/>
			<path class="st2" d="M253.5,468.1c-0.3-0.1-0.6-0.3-1-0.4c2.1-0.7,4.3-0.9,6.5-0.9c2.2,0,3.7-0.6,4-3.2c0.4-5.1,1-10.1,1.5-15.2
				c0-0.3,0-0.6,0-1c0.2-3.3-0.2-3.7-3.6-3.2c-7.7,1-15.4,1.8-23.1,2.9c-7.1,1-14.1,2.2-21.2,3.2c-1,0.1-2.1,0.5-3-0.3
				c4-1.1,8.1-1.4,12.2-1.9c9.1-1.3,18.1-2.5,27.2-3.7c3.6-0.5,7.1-0.7,10.7-1.1c1.5-0.2,2.1,0.5,2,1.9c-0.7,6.7-1.4,13.3-2.1,20
				c-0.1,1.2-0.7,1.9-1.7,2C259.1,467.5,256.3,467.8,253.5,468.1z"/>
			<path class="st2" d="M371.2,458.6c-0.1-0.7,0.2-1.4-0.4-1.9c0-0.5,0-1,0-1.5c0.4-1.2-0.1-2.4,0.3-3.5c0-1.8,0-3.7,0.1-5.5
				c0-1.8,0.9-2.7,2.7-3c4.7-0.7,9.4-1.4,14.1-2.2c1.9-0.3,2.7,0.6,3.2,2.1c2.6,6.5,5.2,13.1,7.9,19.6c3.4,8.2,6.9,16.3,10.3,24.5
				c0.1,0.2,0.1,0.5,0.1,0.7c0,0.2,0.1,0.6-0.1,0.7c-0.7,0.8-0.4-0.2-0.5-0.3c-2.1-5.1-4.3-10.1-6.4-15.2c-4-9.7-8-19.4-11.9-29.2
				c-0.7-1.6-1.6-2.5-3.4-2.1c-4.4,1.2-8.9,1.5-13.4,2.3c-1.5,0.3-1.8,0.9-1.8,2.2c0,3.6-0.7,7.1-0.5,10.7
				C371.7,457.6,371.7,458.2,371.2,458.6z"/>
			<path class="st2" d="M325.1,530.2c0.5,2.7-0.7,3.6-3.3,3.9c-4.6,0.7-9,1.8-13.6,2.7c-2.8,0.6-3.5,0-3.3-2.9
				c0.5-9.6,0.9-19.2,1.5-28.7c0.1-1.7-0.4-2-2-1.7c-2.8,0.4-5.7,0.5-8.6,0.8c-0.8,0.3-1.7,0.2-2.5,0.1c-0.2-0.3-0.2-0.5,0-0.8
				c4-0.9,8-1.5,12.1-1.6c1.5-0.1,2.2,1.1,2.4,2.5c0.2,1.8,0.2,3.7,0.1,5.5c-0.6,7.2-0.7,14.4-1.3,21.5c0,0.6-0.1,1.3-0.1,1.9
				c0,1.1,0.5,1.7,1.6,1.5c4.8-0.6,9.4-1.7,14.1-2.8c1-0.3,1.4-1.3,2-2C324.6,530,324.8,530,325.1,530.2z"/>
			<path class="st2" d="M142.9,446.1c-0.1,0-0.2,0-0.3,0c-5.9,0.6-11.7,1.9-17.6,2.9c-1.4,0.2-1.6,1.4-1.7,2.6
				c-0.2,3.7-0.3,7.5-0.5,11.2c-0.6,9.8-1.3,19.6-1.9,29.5c-0.1,1.6,0,3.2-0.4,4.7c-0.1-0.8-0.1-1.7-0.2-2.5
				c0-8.9,0.9-17.7,1.2-26.5c0.2-5.3,0.6-10.5,0.8-15.8c0.2-3.5,0.3-3.6,3.8-4.2c4.9-0.8,9.9-1.7,14.8-2.6
				C141.8,445.3,142.5,445.2,142.9,446.1z"/>
			<path class="st2" d="M293.3,503.7c0,0.2,0,0.3,0,0.5c-0.1,0.2-0.3,0.3-0.5,0.4c-2.4,0.1-3.4,1-3.3,3.7c0.4,9.5,0.5,19,0.9,28.5
				c0.1,2.4-0.9,3.2-3,3.5c-4.3,0.7-8.6,1.5-12.9,2.3c-0.2-0.1-0.3-0.3-0.5-0.4c0.3-1.4,1.5-1.3,2.4-1.5c3-0.7,6.1-1.2,9.2-1.7
				c2.7-0.5,3-0.9,3-3.7c0.1-8.5-0.5-16.9-0.7-25.4c0-1.1,0.1-2.1,0.2-3.1C288.7,503.7,290.3,502.8,293.3,503.7z"/>
			<path class="st2" d="M440.3,480.7c0.3,3.7-0.3,7.3-0.6,10.9c-0.6,7.9-0.1,15.6,1.6,23.2c1.4,6.2,4.3,11.6,8.6,16.3
				c-0.2,0.2-0.3,0.2-0.5,0c-5.2-4.4-7.5-10.3-9-16.7c-2.3-9.6-2-19.3-1.1-29c0.2-1.7,0.4-3.5,0.7-5.2
				C440.3,480.1,440.6,480.2,440.3,480.7z"/>
			<path class="st2" d="M119.5,496.4c-0.6,0.6-0.8,0-1-0.4c-4-9-8.1-18-12.1-26.9c-2-4.3-4-8.6-5.9-13c-0.3-0.7-1.2-1.4-0.3-2.3
				c4.1,7.9,7.3,16.2,11,24.2C114.1,484.1,116.8,490.3,119.5,496.4z"/>
			<path class="st2" d="M412.9,441.8c0,0.2,0,0.3,0,0.5c-1.3,2.4-0.9,5.1-0.9,7.7c-0.1,10-0.7,19.9-0.6,29.9c0,2.7-0.3,5.5-0.4,8.3
				c0,0.1-0.1,0.2-0.1,0.1c-0.1,0-0.3-0.1-0.4-0.1c0.1-6.5,0-13.1,0.2-19.6c0.2-8.1,0.5-16.3,0.8-24.4
				C411.5,443.1,411.4,441.9,412.9,441.8z"/>
			<path class="st2" d="M440.3,480.7c-0.1-0.2-0.3-0.3-0.4-0.5c0.5-5.9,2.2-11.5,4.3-17c2.6-6.9,6.3-13,11.7-18.1
				c0.6-0.6,1.3-1.1,2.1-1.5c0.6,1.1-0.5,1.4-1,1.8c-7.6,6.8-11.5,15.6-14.4,25.1C441.7,473.9,441.6,477.4,440.3,480.7z"/>
			<path class="st2" d="M178.5,469.6c0.2,0.2,0.3,0.3,0.5,0.5c0.2,0.1,0.2,0.2,0.1,0.3c-0.1,0.1-0.1,0.1-0.2,0.1
				c-5.8,0.5-5.8,0.5-5.7,6.4c0.1,2.9,0.3,5.7,0.3,8.6c0,1.5,0.8,1.5,1.8,1.3c5.6-1,11.2-2.1,16.8-3c1.5-0.2,3.3-1.5,4.6,0.6
				l-0.1,0.1c-4.5,1.2-9.1,1.5-13.7,2.5c-2.5,0.5-5,1.1-7.6,1.3c-2.4,0.3-3.3-0.5-3.4-2.8c-0.2-4.2,0.1-8.5-0.4-12.7
				c-0.3-2.3,0.9-3.3,3.3-3.4C176.2,469.4,177.4,469.1,178.5,469.6z"/>
			<path class="st2" d="M229,471.5c-0.2,0-0.3,0-0.5,0c-1.3-1-2.8-0.5-4.1-0.4c-4.4,0.3-8.7,0.8-13.1,1.3c-2.5,0.3-3.4-0.4-2.9-2.6
				c1.3-6.3,2.4-12.7,4.3-18.9c0.7,0.7,0.4,1.5,0.3,2.2c-1.2,5.2-2.3,10.4-3.4,15.6c-0.6,2.6-0.3,3,2.4,2.8c4.3-0.4,8.5-1,12.8-1.3
				C226.1,470.2,228.3,468.8,229,471.5z"/>
			<path class="st2" d="M449.4,531.1c0.2,0,0.3,0,0.5,0c1.6,0.4,2.6,1.7,4,2.5c10.4,5.6,20.9,5.9,31.6,0.9c0.2,0.2,0.4,0.3,0.5,0.5
				c-3.2,2.4-7.1,3.3-10.9,3.7c-9.2,0.9-17.8-0.7-25.1-6.8C449.8,531.6,449.6,531.4,449.4,531.1z"/>
			<path class="st2" d="M496.5,447.1c-0.2,0.2-0.3,0.3-0.5,0.5c-5.3-6.5-11.9-10.3-20.4-10c-4.3,0.1-8.7,1-12.4,3.5
				c-0.7,0.5-1.5,1.6-2.7,0.8C472.3,433.3,488.2,435.6,496.5,447.1z"/>
			<path class="st2" d="M481.7,512.9c0.1,0,0.3,0,0.4,0c-1.1,2.6-5.8,5.5-8.4,5.2c-0.5-0.1-0.6-0.4-0.7-0.8
				C476.5,517.1,479.4,515.5,481.7,512.9z"/>
			<path class="st2" d="M325.1,530.2c-0.2,0-0.4,0-0.5,0c-0.8-2.7-0.2-5.4,0.1-8c0.1-0.4,0.4-0.7,0.9-0.6c0,0.5-0.1,1.1,0.4,1.4
				C326.1,525.4,325.9,527.8,325.1,530.2z"/>
			<path class="st2" d="M98.7,510.4c-0.9-3.1-0.3-6.2-0.4-9.3C99,504.2,98.8,507.3,98.7,510.4z"/>
			<path class="st2" d="M189.1,470c1.9-0.8,3.9-0.3,5.9-0.3C193.1,470.3,191.1,470.1,189.1,470z"/>
			<path class="st2" d="M99.2,525.8c-0.8-2-0.3-4-0.3-6C99.4,521.8,99.3,523.8,99.2,525.8z"/>
			<path class="st2" d="M98.3,495.1c-0.9,1.2-0.2,2.6-0.4,3.8c-0.9-1.3-0.4-2.7-0.4-4.1c0-0.6,0.6-0.3,0.9-0.2
				C98.3,494.8,98.3,494.9,98.3,495.1z"/>
			<path class="st2" d="M179,470.5c0-0.1,0-0.3,0-0.4c1.8,0,3.6,0,5.5,0.1C182.7,470.7,180.9,470.6,179,470.5z"/>
			<path class="st2" d="M306.8,481c0,0.2,0,0.4,0,0.6c-0.7,1.7-1.8,1.2-2.9,0.5c0-0.1,0-0.3,0-0.4
				C304.9,481.5,305.8,481.3,306.8,481z"/>
			<path class="st2" d="M327,508.3c0.1-1.2-0.4-2.5,0.4-3.6C327.4,505.9,327.6,507.2,327,508.3z"/>
			<path class="st2" d="M371.1,451.7c0,1.2,0.4,2.4-0.3,3.5C370.6,454,370.7,452.8,371.1,451.7z"/>
			<path class="st2" d="M292.9,504.6c0.2-0.1,0.3-0.3,0.5-0.4c0.8,0,1.7,0,2.5,0.1C294.9,504.8,293.9,504.7,292.9,504.6z"/>
			<path class="st2" d="M326.5,514.4c0-1-0.4-2.1,0.3-3C326.9,512.5,327,513.5,326.5,514.4z"/>
			<path class="st2" d="M326.1,520.7c0.1-1-0.4-2.1,0.4-3C326.5,518.7,326.5,519.7,326.1,520.7z"/>
			<path class="st2" d="M327.5,501.5c0-1-0.4-2.1,0.3-3.1C327.9,499.5,328.1,500.5,327.5,501.5z"/>
			<path class="st2" d="M335.5,533.3c0,1,0.4,2.1-0.3,3.1C335.2,535.3,335,534.3,335.5,533.3z"/>
			<path class="st2" d="M339.9,537.8c0,0.3,0,0.6,0,0.9c-0.3,0-0.7,0-1,0c-0.3-0.1-0.6-0.3-1-0.4
				C338.4,537.1,339.1,537.4,339.9,537.8z"/>
			<path class="st2" d="M336,527.6c0.1,0.9,0.3,1.8-0.3,2.6C335.6,529.3,335.6,528.4,336,527.6z"/>
			<path class="st2" d="M335.6,538.8c0.8,0,1.7,0,2.5,0C337.2,539.4,336.4,539.5,335.6,538.8z"/>
			<path class="st2" d="M428.8,520.5c0,3.4,0,6.7,0,10.1c-1-2.3-0.3-4.6-0.4-7c-0.1-1.5,0-3,0-4.6
				C429.1,519.4,428.7,520.1,428.8,520.5z"/>
			<path class="st2" d="M432.2,439.8c1.1,2,0.2,4.2,0.5,6.2C431.6,444.1,432.4,441.9,432.2,439.8z"/>
			<path class="st2" d="M98.3,527.7c1,1.5,0.3,3.2,0.5,4.8C97.8,531,98.5,529.3,98.3,527.7z"/>
			<path class="st2" d="M339.9,537.8c-0.7,0.1-1.4-0.2-1.9,0.5c-1.2,0.1-1.9-0.1-1.9-1.6c-0.1-5.5,0.8-11,1.2-16.4
				c0.2-2.9,0.2-5.9,0.6-8.8c0.7-5.5,0.7-11.1,1.1-16.7c0.6-8.2,1.4-16.5,1.8-24.7c0.2-3.4,0.4-6.8,0.6-10.3c0.2-3.7,0.3-7.3,0.5-11
				c0-1.1,0.5-1.8,1.5-2.2c5-1.8,10-3.7,15.1-5.5c2.6-0.9,3-0.4,2.7,2.3c-0.1,0.8-0.1,1.6,0,2.4c0.2,9.1-0.9,18.2-1.1,27.2
				c-0.2,8.3-1,16.7-1.4,25c-0.5,9.7-1.4,19.4-1.9,29c-0.1,2-0.4,4-0.4,5.9c0,1.4-0.6,2.4-1.9,2.6
				C349.5,536.5,344.7,537.2,339.9,537.8z"/>
			<path class="st2" d="M178.5,469.6c-1.2,0.7-2.5,0.5-3.7,0.4c-1.8-0.1-2.7,0.7-2.5,2.3c0.7,4.6,0.3,9.2,0.4,13.8
				c0,1.6,1.1,1.8,2.3,1.6c5.8-1,11.5-2.2,17.3-3.1c1.4-0.2,2.9-0.8,4.4-0.1c-0.9,5.2-1.2,10.6-1.5,15.9c-0.1,0.8-0.4,1.6-0.3,2.3
				c0.2,1.9-0.9,2-2.3,2c-5.1-0.1-10.2,0-15.3,0c-3.5,0-3.4,0-3.5,3.4c-0.2,7.3,0.7,14.6,0.6,22c0,2.3,0.4,4.6,0.4,6.9
				c0,1.1-0.2,1.7-1.5,2c-6.5,1.2-12.9,2.5-19.4,3.7c-1.3,0.3-2.3,0-2.2-1.8c0.3-5-0.5-10,0.5-15c0.2-1.1-0.2-2.2-0.5-3.3
				c0.6-2.3,0.5-4.7,0.5-7.1c-0.2-20.6,0.9-41.2,0.5-61.8c0-1.8,0.6-2.4,2.4-2.7c10.3-2.1,20.8-3.6,31.2-5.2
				c5.7-0.9,11.4-1.8,17.2-2.7c2-0.4,2.9,0.2,2.6,2.3c-0.7,4.9-1.4,9.9-2.1,14.8c-0.3,1.9-0.5,3.8-0.7,5.7c-0.2,2-0.9,3-3.3,3.1
				C192.7,469.1,185.6,469.7,178.5,469.6z"/>
			<path class="st2" d="M303.9,482.1c1-0.2,2,0.4,2.9-0.5c0.4-0.3,0.5-0.8,0.5-1.3c0-6.2,0.2-12.3-0.1-18.5
				c-0.3-4.8-0.3-9.7-0.4-14.5c0-1.7,0.3-2.6,2.2-2.9c6.8-1.1,13.6-2.4,20.4-3.6c1.1-0.2,1.5,0.3,1.4,1.3c-0.2,4.5-0.3,9.1-0.6,13.6
				c-0.2,2.7-0.6,5.3-0.8,8c-0.4,5.2-0.5,10.5-1,15.7c-0.7,7.8-0.9,15.7-1.8,23.5c-0.5,3.9-0.4,7.8-0.6,11.7
				c-0.6,0.7,0.1,1.7-0.5,2.4c0,1.4,0,2.9,0,4.3c-0.9,1-0.4,2.1-0.4,3.2c0,1.8-0.1,3.6-0.5,5.4c0,1.9-0.9,2.7-2.9,3
				c-4.5,0.7-9,1.8-13.5,2.7c-1.5,0.3-2.5,0.1-2.3-1.9c0.7-7.4,0.6-14.9,1.4-22.3c0.3-2.4,0.1-4.8,0.1-7.2c0-1.4-0.6-2-2.3-1.9
				c-3.9,0.2-7.7,1.4-11.6,1.1c-1,0.2-2,0.3-3,0.5c-0.8,0.1-1.2,0.7-1.3,1.5c-0.2,6.3-0.1,12.7,0.3,19c0.3,4.3,0.1,8.6,0.2,12.9
				c0,1.3-1,1.5-2,1.7c-4.1,0.8-8.2,1.6-12.4,2.4c-0.4,0.1-0.7,0.3-1,0.5c-2,0.2-4,0.3-5.9,0.5c-1.2,0.1-1.8-0.3-1.7-1.6
				c0.3-5.2,0.6-10.5,0.9-15.7c0.2-3.2,0.4-6.4,0.4-9.5c0.1-7.9,0.9-15.7,1.2-23.6c0.2-7.7,0.9-15.4,1.5-23.1
				c0.3-4.4-0.2-8.8,0.7-13.1c0.3-1.3,0.7-2,2-2.3c5-1.1,9.9-2.1,14.9-3.2c1.3-0.3,1.5,0.5,1.5,1.5c-0.1,3.4-0.3,6.9-0.3,10.3
				c-0.1,6.5-0.6,12.9-0.6,19.4c0,2,0.2,2.9,2.8,2.5c3.8-0.6,7.7-1,11.5-1.6C303.2,482.5,303.6,482.3,303.9,482.1z"/>
			<path class="st2" d="M325.5,517.2c0.1-0.8-0.3-1.7,0.5-2.4C325.9,515.6,326.3,516.5,325.5,517.2z"/>
		</g>
		<g>
			<path class="st1" d="M500.2,450.8c1.3-5.3,2.5-10.5,3.8-15.8c0.4-1.8,1.6-2.4,3.4-2c5,1.1,10,2.3,15,3.4c1.8,0.4,2.5,1.5,2.1,3.3
				c-1.2,5.3-2.4,10.6-3.6,15.9c-0.4,1.6-1.4,2.4-3.1,1.9c-5.2-1.3-10.3-2.6-15.5-3.7C500.3,453.3,499.9,452.4,500.2,450.8z"/>
			<path class="st1" d="M523.6,439.9c-1.3,5.2-2.5,10.4-3.8,15.5c-0.3,1.3-1.5,1.3-2.6,1c-4.6-1.1-9.3-2.2-13.9-3.4
				c-1.8-0.4-2.6-1.3-1.9-3.4c1.3-4.4,2.5-8.8,3.3-13.3c0.4-2.2,1.5-2.6,3.3-2.3c4.4,0.9,8.8,1.9,13.1,2.9
				C522.6,437.3,523.9,437.9,523.6,439.9z"/>
			<path class="st1" d="M507.6,437.4c4.2,0.1,8.4,0.7,12.3,2.5c0.4,0.2,0.9,0.4,0.8,1c-1.2,3.9-1.2,8.1-3.5,11.6
				c-0.2-0.2-0.4-0.5-0.5-0.8c-0.1-2.8,0.8-5.4,1.4-8c0.5-2,0-3-2.1-3.4c-2.8-0.6-5.7-0.9-8.4-2.2
				C507.4,438,507.4,437.7,507.6,437.4z"/>
			<path class="st1" d="M517.1,451.8c0,0.2,0,0.5,0,0.7c-2.9,1.5-5.4-0.6-8-1.1c-5.5-1.1-5.5-1.3-3.9-6.8c0.7-2.4,0.6-5.1,2.4-7.2
				c0,0.2,0,0.5,0,0.7c1.2,2.9-0.4,5.5-1,8.2c-0.6,3-0.8,3,2.2,3.7C511.7,450.5,514.4,451.2,517.1,451.8z"/>
		</g>
		<g>
			<path class="st2" d="M502.2,410.2c-1.6-2.1-3.3-4.3-4.9-6.4c-1.5-2-1.5-2.1,0.7-3.6c2.2-1,3.8-2.9,5.7-4.3c0.5-0.4,1-0.8,1.4-1.2
				c1.8-1.5,2.1-1.4,3.6,0.3l0,0c1.2,1.7,2.1,3.5,3.7,4.8c0.6,0.7,1.2,1.4,1.8,2.1c1.5,1.9,1.4,2-0.6,3.4c-1.4,0.4-2.3,1.5-3.2,2.6
				c-0.2,0.5-0.5,0.7-1,0.9c-1.3,0.3-2,1.5-3,2.2c-1.9,1.3-1.9,1.4-3.5-0.4C502.6,410.3,502.4,410.2,502.2,410.2z"/>
			<path class="st2" d="M542.7,435.6c1.5,1.7,3,3.4,4.6,5.1c0.7,0.7,0.5,1.3,0,1.9c-0.6,0.6-1.3,1.1-2,1.7c-2.4,1.3-4.1,3.5-6.1,5.2
				c-1.6,1.3-2,1.4-3.4-0.2c-1.2-1.4-2.3-2.8-3.6-4.1c-0.7-1.2-1.7-2.2-2.6-3.2c-0.9-1.1-0.9-2.1,0.2-2.9c2.2-1.7,4.2-3.8,6.3-5.6
				c0.1-0.1,0.3-0.3,0.4-0.4c2-1.7,2.2-1.7,3.8,0.2C541.2,434.2,541.6,435.2,542.7,435.6z"/>
			<path class="st2" d="M489.9,419.2c0.4-0.3,0.9-0.3,1.4-0.3c2.8,0,5.5-0.6,8.2-1c1.4-0.3,2.4,0,2.8,1.4l0,0
				c0.3,3.2,0.9,6.4,1.5,9.6c0.3,2,0.1,2.5-1.8,2.8c-3.3,0.4-6.5,1.1-9.8,1.5c-1.4,0.2-2-0.2-2.2-1.6c-0.3-3.3-0.8-6.5-1.5-9.8
				C488.3,420.4,488.8,419.7,489.9,419.2z"/>
			<path class="st2" d="M522,399.3c1.7-3.2,3.3-6.5,5-9.7c0.6-1.1,1.5-1.3,2.5-0.8c3.1,1.6,6.2,3.1,9.3,4.7c1.1,0.6,1.4,1.4,0.8,2.5
				c-1.6,3.3-3.3,6.5-4.9,9.8c-0.5,1-1.3,1.3-2.4,0.8c-3.2-1.7-6.3-3.4-9.5-4.9C521.6,401,521.5,400.4,522,399.3z"/>
			<path class="st2" d="M489.9,419.2c-1.7,1.3-1,3-0.7,4.6c0.4,2.4,0.9,4.8,1,7.3c0.1,1.2,0.5,1.9,2,1.7c3.3-0.6,6.6-1,9.9-1.5
				c1.3-0.2,1.7-0.8,1.4-2.1c-0.5-2.7-0.9-5.4-1.3-8c-0.1-0.6-0.2-1.2,0.1-1.9c1,3.5,1.3,7.1,1.9,10.7c0.2,0.9-0.3,1.6-1.3,1.8
				c-3.8,0.6-7.6,1.2-11.3,1.8c-0.9,0.1-1.6-0.3-1.7-1.3c-0.5-3.7-1.1-7.4-1.7-11.1C488,419.7,488.6,419.1,489.9,419.2z"/>
			<path class="st2" d="M539.9,412.3c3-1.4,6.4-1.5,9.6-2.1c4-0.8,4-0.6,4.6,3.4c0.4,2.7,0.9,5.3,1.3,8c0.3,1.7-0.2,2.7-2,2.8
				c-0.9,0.1-1.8,0.2-2.8,0.4c-0.4,0.1-0.5-0.2-0.4-0.5c0.6-0.8,1.5-0.7,2.2-0.8c1.3-0.1,2-0.8,1.8-2.2c-0.5-3.1-1-6.1-1.6-9.2
				c-0.3-1.6-1.6-1.2-2.6-1c-3,0.7-6,1.2-8.9,1.8c-0.4,0.1-0.7,0.2-1.1,0.1C539.8,412.8,539.7,412.6,539.9,412.3z"/>
			<path class="st2" d="M514.2,438.6c2.1,0.8,4.2,1.6,6.3,2.4c1,0.4,1.4,1,0.9,2.1c-1.5,3.4-2.9,6.7-4.3,10.1
				c-0.9,2.1-2.3,1.1-3.6,0.7c0.1-0.4,0.4-0.5,0.7-0.6c1.2-0.1,1.9-0.7,2.3-1.9c0.9-2.4,2-4.7,3-7c0.8-1.8,0.7-2-1.1-2.8
				c-1.9-0.8-3.8-1.4-5.6-2.3c-0.6-0.3-1.2-0.4-1.5-1.1c0-0.3,0.1-0.4,0.3-0.4C512.6,438,513.4,438.1,514.2,438.6z"/>
			<path class="st2" d="M514,453.6c-0.2,0.1-0.3,0.1-0.5,0.2c-2.9-1.1-5.8-2.2-8.7-3.4c-0.7-0.3-1.3-0.8-0.9-1.9
				c1.5-3.7,2.9-7.4,4.6-11c0.8-1.7,2-0.4,3.1-0.1c0.1,0.1,0.1,0.2,0.1,0.2c-0.1,0.1-0.1,0.1-0.1,0.1l0,0c-1.8,0.3-2.7,1.5-3.2,3.2
				c-0.6,2-1.5,3.9-2.4,5.7c-1,2.1-0.9,2.2,1.1,3.1c1.8,0.8,3.7,1.6,5.6,2.3C513.2,452.5,514.1,452.6,514,453.6z"/>
			<path class="st2" d="M539.9,412.3c0.1,0.2,0.2,0.4,0.3,0.6c1,3.2,1,6.6,1.7,9.9c0.5,2.4,0.5,2.4,2.9,2.1c1.2-0.1,2.3-0.5,3.5-0.7
				c0.7-0.1,1.4-0.4,2,0.1c0.1,0.2,0.2,0.3,0.3,0.5c-2.6,0.5-5.1,1.1-7.7,1.6c-1.2,0.2-1.7-0.3-1.9-1.4c-0.5-3.6-1.1-7.2-1.7-10.9
				C539.3,413.4,539.2,412.8,539.9,412.3z"/>
			<path class="st2" d="M532.4,445.1c1.4,1,2.5,2.2,3.5,3.6c1.3,1.7,1.7,1.8,3.3,0.3c1.8-1.6,3.5-3.2,5.3-4.7c0.2-0.2,0.5-0.7,0.8,0
				c-2,1.9-4.1,3.8-6.1,5.7c-1.2,1.1-2.2,1.3-3.3-0.2c-1.1-1.5-2.4-2.9-3.6-4.3c-0.1-0.1-0.1-0.2,0-0.3
				C532.3,445.2,532.3,445.1,532.4,445.1z"/>
			<path class="st2" d="M532.4,445.1c0,0.1-0.1,0.2-0.1,0.4c-1-1.2-2-2.3-3-3.5c-0.9-1.1-0.9-2.1,0.2-3.1c2.3-1.9,4.5-3.9,6.8-5.8
				c0.2,0.1,0.2,0.4,0.3,0.5c-2.1,1.8-3.9,3.8-6.2,5.5c-1.1,0.8-1.3,1.7-0.3,2.8C530.9,442.9,532,443.8,532.4,445.1z"/>
			<path class="st2" d="M508.7,395c-1.3-1.4-2.5-0.9-3.7,0.2c-1.9,1.7-3.8,3.2-5.8,4.7c-0.3,0.2-0.7,0.9-1.2,0.2
				c2.6-2.2,5.2-4.4,7.9-6.5C507.2,392.6,507.8,393,508.7,395z"/>
			<path class="st2" d="M502.3,419.3c-0.8-1.1-1.8-1.3-3.1-1c-2.1,0.4-4.3,0.7-6.5,1c-0.5,0.1-1.1,0.4-1.5-0.4c3-0.5,6-1,9-1.5
				C501.8,417.2,502.5,417.8,502.3,419.3z"/>
			<path class="st2" d="M502.2,410.2c0.2-0.1,0.4-0.2,0.5-0.2c0.7,0.4,1.1,1.8,2,1.5c1-0.3,1.7-1.3,2.6-1.7c0.7-0.3,0.8-1.8,2.1-1
				c-0.8,0.7-1.6,1.4-2.4,2.1C504.6,412.8,503.7,412.9,502.2,410.2z"/>
			<path class="st2" d="M536.5,433.7c-0.1-0.2-0.2-0.4-0.3-0.5c2.1-2.3,2.5-2.3,4.4-0.1c0.7,0.8,1.4,1.7,2.1,2.5
				c-1.2,0.3-1.4-0.8-1.9-1.4C538.8,431.8,538.8,431.8,536.5,433.7z"/>
			<path class="st2" d="M512.4,399.7c-2.1-0.9-2.9-2.8-3.7-4.8C510.3,396.2,511.2,398.1,512.4,399.7z"/>
			<path class="st2" d="M510.4,407.8c0.5-1.3,2-2.6,3.2-2.6C512.5,406.1,511.4,406.9,510.4,407.8z"/>
			<path class="st2" d="M511.5,437.9c0-0.1,0.1-0.2,0.1-0.3c0.9,0.3,1.9,0.3,2.6,1.1C513.3,438.3,512.4,438.1,511.5,437.9z"/>
			<path class="st2" d="M506.1,407.6c1.4-1.6,3.2-2.7,4.9-4c0.3,0.1,0.6-0.6,0.7-0.1C511.6,404.2,506.9,407.6,506.1,407.6z"/>
			<path class="st2" d="M510.2,401.8c-0.3-0.4-0.6-0.7-0.8-1.1C510.2,400.7,510.4,401,510.2,401.8z"/>
			<path class="st2" d="M537.7,447c1.8-1.6,3.6-3.1,5.4-4.7c0.3-0.3,0.9-0.4,0.7-1c-0.1-0.3-0.1-0.5,0.2-0.7c0.8,0.7,0.8,1.3,0,2
				c-1.9,1.6-3.7,3.2-5.6,4.7c-0.4,0.3-0.8,0.8-1.2,0C537.4,447.2,537.6,447.2,537.7,447z"/>
			<path class="st2" d="M544,440.6c-0.1,0.2-0.1,0.5-0.2,0.7c-1.7-1.9-3.5-3.7-5-5.9c1.3,0,1.6,1.2,2.3,1.8
				C542.1,438.3,543,439.5,544,440.6z"/>
			<path class="st2" d="M537.7,447c-0.2,0.1-0.3,0.2-0.5,0.3c-1.1-1-2.2-1.9-2.4-3.5C535.8,444.9,536.8,446,537.7,447z"/>
			<path class="st2" d="M491.4,422.5c0.4,2.2,0.8,4.4,1.1,6.6c0.1,1,0.5,1.1,1.4,0.9c2.2-0.4,4.4-0.7,6.6-1c0.3,0.9-0.5,0.7-0.9,0.7
				c-2,0.4-4,0.7-5.9,1.1c-1.1,0.3-1.6-0.2-1.8-1.1c-0.4-2.3-0.8-4.6-1.1-6.9C490.8,422.4,491.1,422.4,491.4,422.5z"/>
			<path class="st2" d="M499.5,420.8c-2.6,0.1-5.1,1-7.7,0.9c-0.1-0.2-0.8-0.4-0.2-0.5c2.6-0.5,5.1-0.9,7.7-1.2
				C499.8,420,500.1,420.4,499.5,420.8z"/>
			<path class="st2" d="M539,396c-1.7,3.2-3.3,6.4-5,9.5c-0.4,0.8-1.2,0.6-1.8,0.3c-2.9-1.5-5.7-3-8.5-4.4c-1.1-0.6-1.5-1.2-0.7-2.5
				c1.6-2.6,3.1-5.4,4.3-8.2c0.6-1.4,1.4-1.5,2.5-0.9c2.7,1.3,5.4,2.6,8.1,4C538.8,394.2,539.5,394.8,539,396z"/>
			<path class="st2" d="M550.4,424.3c-2.3,0.5-4.7,1-7,1.4c-0.6,0.1-1.3,0.3-1.5-0.6c-0.7-4-1.6-8-1.7-12.1c1.3-0.9,2.9-0.7,4.3-1.1
				c2.3-0.6,4.6-0.9,6.9-1.3c1-0.2,1.6,0.1,1.7,1.2c0.5,3.1,1.2,6.2,1.6,9.3c0.3,2.3-0.2,2.8-2.5,3
				C551.6,424.1,551,424.2,550.4,424.3z"/>
			<path class="st2" d="M514,453.6c-1.4-1.3-3.3-1.3-4.9-2.1c-1.1-0.6-2.3-1.2-3.6-1.6c-1.1-0.3-1.2-1.1-0.7-2.1
				c1.3-2.7,2.6-5.4,3.5-8.3c0.5-1.6,1.5-2.5,3.3-1.7c2.4,1.6,5.2,2.5,7.9,3.4c1.4,0.5,1.7,1,1.2,2.3c-1.3,3.1-2.9,6.1-4,9.4
				C516.1,454.1,514.9,453.6,514,453.6z"/>
			<path class="st2" d="M529,391.8c2.8,0.7,5.3,1.8,7.6,3.6c0.2,0.2,0.6,0.4,0.3,0.8c-1.4,2.3-2.1,5.1-4.2,7
				c-0.1-0.2-0.2-0.4-0.2-0.6c0.4-1.8,1.4-3.4,2.2-5c0.7-1.2,0.5-1.9-0.8-2.5c-1.8-0.8-3.6-1.5-5.1-2.8
				C528.7,392.2,528.8,392,529,391.8z"/>
			<path class="st2" d="M532.8,402.8c0,0.2-0.1,0.3-0.1,0.5c-2.1,0.5-3.4-1.3-5.1-2c-3.4-1.6-3.4-1.8-1.5-5.1
				c0.9-1.5,1.2-3.3,2.7-4.3c0,0.1-0.1,0.3-0.1,0.4c0.3,2.1-1.1,3.5-1.9,5.2c-0.9,1.9-1,1.8,0.9,2.7
				C529.5,401,531.2,401.9,532.8,402.8z"/>
			<path class="st2" d="M542.9,414.5c-0.1,2.7,0.8,5.3,1.1,7.9c0.1,0.5,0.5,0.4,0.9,0.4c2.2-0.4,4.3-0.8,6.5-1.2
				c0.6-0.1,0.8-0.4,0.7-1c-0.1-0.7-0.2-1.5-0.3-2.2c0.1-0.2,0.2-0.2,0.4-0.3c0,0.1,0.1,0.1,0.1,0.2c0.5,3.7,0.5,3.7-3.2,4.4
				c-1.5,0.3-3.1,0.5-4.6,0.9c-1.2,0.3-1.4-0.2-1.4-1.1c0-2.4-0.4-4.6-1-6.9C541.9,414.6,542,414.5,542.9,414.5z"/>
			<path class="st2" d="M552.2,418.1c-0.1,0.1-0.3,0.2-0.4,0.3c-0.2-1.3-0.6-2.5-0.7-3.8c-0.1-1.1-0.6-1.5-1.7-1.1
				c-1.4,0.4-2.8,0.8-4.2,0.7c-0.2-0.3-0.2-0.5,0.1-0.6c1.9-0.1,3.7-0.5,5.4-1.3c0.6-0.3,0.6,0.2,0.7,0.5
				C551.6,414.5,552.2,416.2,552.2,418.1z"/>
			<path class="st2" d="M507,448c-0.2-0.3-0.3-0.6-0.1-0.9c1.2-1.8,1.9-3.8,2.6-5.8c0.5-1.3,1-1.8,2.5-1c1.6,0.8,3.3,1.6,5,2.2
				c1.8,0.6,1.7,1.5,1.1,2.8c-0.7-0.1-0.5-0.7-0.7-1.1c-1.6-1.5-3.8-1.9-5.7-2.7c-0.8-0.4-1,0.4-1.3,1c-0.8,1.7-1.3,3.7-2.5,5.2
				C507.5,447.9,507.3,448,507,448z"/>
			<path class="st2" d="M518,444.1c-0.1,0.4-0.3,0.8,0,1.2c-1.2,1.4-1.2,3.3-2.1,4.8c-0.6,1.1-1.3,1.6-2.4,1
				c-2.2-1.1-4.7-1.3-6.5-3.1c0.1-0.1,0.3-0.2,0.4-0.3c1.6,0.1,3,0.8,4.4,1.5c2.6,1.1,2.7,1.1,3.8-1.4c0.4-0.9,0.8-1.8,1.3-2.7
				C517.1,444.6,517.2,443.9,518,444.1z"/>
		</g>
	</g>
</g>
<g id="_x32_" class="st0">
	<path class="st3" d="M501.9,686L67.1,717.7c-6.6,0.5-12.4-4.5-12.8-11.1l-7.7-106.3C46,593.8,51,588,57.6,587.6l434.8-31.7
		c6.6-0.5,12.4,4.5,12.8,11.1l7.8,106.3C513.5,679.8,508.5,685.6,501.9,686z"/>
	<path class="st3" d="M614,702"/>
	<path class="st3" d="M502,606.7l-16.4-7c-9-3.8-15.2-12.2-16.2-21.9l-1.7-15.8c-0.1-1.2,0.7-2.3,1.9-2.5c2.2-0.4,4.1-0.8,5.7-1.2
		c0.6-0.1,2.4-0.5,4.7-1.4c1.4-0.6,2.1-0.8,2.2-1.2c1.2-2.3-7.8-6.5-7.6-12.1c0.1-2.4,2.1-4.4,6.1-8.3c3-2.9,5.8-4.9,7.8-6.2
		c1-0.7,2.1-1.4,3.1-2c0.1-0.1,0.2-0.1,0.4-0.2c1.6-0.7,3.6-1.2,5.7-0.7c4.4,1.2,5.4,7.2,8.2,7.1c3.2-0.1,3.2-8.4,8.7-10.2
		c3.6-1.2,8.3,0.7,8.9,1c1.3,0.5,2.3,1.1,3,1.6c0,0,4.3,1.6,8.9,4.1c0.2,0.1,0.5,0.2,0.8,0.5c0.8,0.8,1.8,2.1,2.3,3.8
		c1.2,4.4-2.1,7.6-0.7,9.3c1.5,1.8,5.5-1,9.2,1c2.1,1.2,3.1,3.4,3.7,5.3c0,0.1,0.1,0.3,0.1,0.4l2,18.5c0,0.4,0,0.7-0.1,1
		c-0.4,1.2-1.2,2.7-2.6,3.9c-3.2,2.7-6.9,1.4-7.9,3.4c-1.1,2.1,2.7,4.4,2.7,9c0,2.2-0.9,4-1.6,5.2c-0.1,0.2-0.3,0.4-0.5,0.6
		c-3.2,2.5-9.3,7.1-16,11.9c-1.5,1-3.3,2.3-5.4,1.9c-3.7-0.6-4.7-5.6-7.1-5.3c-2.3,0.2-2.3,4.5-5.8,6.2
		C506,607.7,503.7,607.3,502,606.7z"/>
	<g class="st4">
		<path class="st2" d="M397.9,631.8c0.3,0.1,0.6,0.2,0.9,0.4c0.6-2.6,0.5-5.3,0.5-8c-0.1-9.7,0.7-19.3,0.6-29c0-2.1,0.4-4.3,0.4-6.4
			c0-0.9,0-2,0.9-2.6c6.2-1.3,12.4-2.1,18.6-3c0.5-0.1,0.9,0.1,1.2,0.6c0.6,2.1,0,4.4,0.5,6.5c-0.5,5.8-0.6,11.6-1,17.4
			c-0.5,8.3-0.6,16.7-1.3,25c-0.3,3.6-0.4,7.3-0.5,11c-0.1,5.7-0.8,11.3-0.6,17c0.1,1.3,0,2.7-0.6,3.9c-0.9-0.1-0.6-0.5-0.5-0.7
			c0.8,3.3,0,6.9,0.5,10.4c0.2,2.1-0.9,3.2-2.9,3.7c-4.3,1.2-8.6,2.4-12.9,3.7c-2.4,0.7-2.9,0.4-3.8-1.8
			c-6.4-15.7-12.9-31.3-19.7-46.7c-0.2-0.5-0.5-1-1-1.3c-0.1,0-0.2,0.1-0.3,0.1c-0.8,0.7-0.5,1.6-0.5,2.5c-0.1,12,0.7,24,0.5,35.9
			c0,2.5,0.2,4.9,0.2,7.4c-0.1,2.6-0.5,3.1-2.9,3.5c-5.6,0.9-11.2,1.9-16.8,2.8c-2.4,0.4-2.7,0-2.6-2.4c0.2-12.3,1.4-24.5,2-36.8
			c0.4-7.6,0.8-15.3,1.4-22.9c0.5-6.3,0.6-12.6,1.1-18.9c0.3-4.1,0.6-8.3,0.7-12.4c0.1-1.9,0.6-2.8,2.7-3.2
			c4.3-0.6,8.7-1.2,12.9-2.1c2.1-0.5,3.1,0.3,3.8,2.1c2.1,5.3,4.3,10.6,6.5,16c3.6,9,7.5,18,11.2,27
			C397.2,630.9,397.3,631.6,397.9,631.8z"/>
		<path class="st2" d="M87.1,638.2c-0.1,0.1-0.3,0.2-0.4,0.3c-1,1.7-0.3,3.4-0.2,5.2c0.2,9.2,0.6,18.5,0.6,27.7
			c0.3,1.7-0.1,3.5,0.3,5.3c-0.1,1.9,0.2,3.8,0.3,5.7c0.1,1.3-0.5,2.1-1.8,2.3C80,686,74.1,687,68.2,688c-1.6,0.3-2.1-0.4-2-2
			c0.4-9.6,0.6-19.3,0.8-28.9c0.4-15.1,1.1-30.1,1.4-45.2c0.1-2.9,0.5-5.7,0.4-8.6c0-2.8,0.1-3,3-3.6c3.6-0.8,7.2-1.3,10.8-1.9
			c1.6-0.3,3.3-0.4,4.9-0.9c0.6,0.1,0.8,0.4,0.9,0.9c0.3,2.8,2,5,3.1,7.4c4.6,10.9,9.8,21.6,14.5,32.4c0.4,1,0.8,2.1,1.7,2.8
			c1.1-0.3,0.3-1.4,0.8-2c0.1,0.2,0.5,0.5,0.2,0.8c0.3,0,0.2-0.2,0.2-0.3c0-5.4,0.4-10.7,0.8-16c0.5-7.4,0.6-14.8,1.3-22.2
			c0.2-1.7,0-3.4,0.1-5c0.1-1.5,0.6-2.8,2.4-3.1c5.4-1,10.8-1.9,16.3-2.8c0.3-0.1,0.6,0,0.9,0.2c0.6,3.6,0,7.3,0,10.9
			c0,2-0.3,4-0.4,6c-0.4,13.3-0.8,26.6-1.3,39.9c-0.2,6.5-0.7,12.9-0.6,19.4c0,4-0.6,8-0.5,12c0,1.7-0.7,2.6-2.5,2.9
			c-5,0.9-10,1.8-15,2.9c-1.7,0.4-2.3-0.8-2.9-1.9c-2.2-4.5-4.2-9.2-6.3-13.7c-2.7-6-5.4-11.9-8.1-17.9c-1.5-3.4-3.1-6.7-4.7-10
			C88.2,639.4,88.2,638.4,87.1,638.2z"/>
		<path class="st2" d="M460.8,661.2c0.2,0,0.3,0,0.5,0c2.6,0.7,6.8-1.2,8.8-4c0.2-0.3,0.3-0.6,0.5-0.8c1.2-1.9,2-4,2.5-6.2
			c0.4-2,0-2.6-2-2.4c-2.2,0.2-4.5,0.1-6.7,0.5c-2,0.3-2.6-0.5-2.6-2.3c0.1-4.9,0.4-9.9,1-14.8c0.1-1.3,0.8-2,2.1-2.2
			c8.6-1.3,17.2-2.4,25.8-3.3c2.7-0.3,3.8,0.4,3.7,3c-0.3,12.5-1,24.9-7.1,36.3c-3.1,5.8-7.4,10.6-13.2,13.9
			c-12.2,5.7-23.8,5.1-34.9-2.9c-0.3-0.2-0.7-0.4-1-0.6c-6.2-5.7-8.7-13.2-9.9-21.2c-1.2-8.2-1.2-16.5-0.2-24.7
			c0.2-1.4,0.2-2.8,0.4-4.3c1.6-10.3,4.4-20.2,10.4-29c2.1-3.1,4.9-5.6,7.4-8.3c0.6-0.9,1.6-1.4,2.5-1.8c0.8,0.1,1.3-0.4,1.9-0.8
			c12.1-7.1,25.5-4.5,33.9,6.4c4,5.2,6,11.2,7.2,17.6c0.5,2.4,0.1,2.8-2.3,3.5c-4.9,1.5-9.9,2.6-14.8,4.1c-2.2,0.7-2.6,0.3-3-2
			c-0.5-3.4-1.1-6.8-3.3-9.6c-2.3-3-5.5-3.5-8.7-1.4c-3.8,2.5-5.5,6.4-6.9,10.4c-1.9,5.3-2.5,10.8-2.9,16.4c-0.5,7-0.2,14,1.3,20.9
			c0.6,2.8,1.6,5.5,3.7,7.7C456.7,660.7,458.4,661.8,460.8,661.2z"/>
		<path class="st2" d="M201,594.8c0-0.6,0.4-0.9,0.9-0.9c5.7-0.3,11.2-1.5,16.8-2.2c8.3-1,16.6-2.3,24.9-3.2
			c2.5-0.3,5.1-0.7,7.6-0.9c2.3-0.1,2.4,0.2,2.2,2.4c-0.4,5.4-1.2,10.8-1.6,16.2c-0.3,4-0.9,4.6-4.8,4.9c-2.2,0.1-4.3,0.5-6.4,0.8
			c-1.6,0.4-3.3,0.4-5,0.7c-1.1,0.2-1.5,0.8-1.5,2c0.2,22-0.3,44-0.1,65.9c0,1.6-0.6,2.5-2.3,2.7c-6.6,0.9-13.3,1.5-19.9,2.8
			c-2.3,0.4-2.7-0.3-2.5-2.6c0.6-6.3,1.4-12.7,2.1-19c0.9-8.2,1.8-16.5,2.7-24.7c0.7-6.2,1.4-12.3,2.1-18.5c0.2-1.8,0.5-3.6,0.7-5.5
			c0-1.5-1.2-1.3-2.1-1.2c-4.5,0.3-9,0.8-13.5,1.2c-0.6,0-1.2,0.2-1.9,0.2c-2.1,0-2.8-0.7-2.4-2.8c1-4.5,1.9-9,2.9-13.5
			C200.6,598.1,201.1,596.5,201,594.8z"/>
		<path class="st2" d="M324.4,671.5c0.5-6.9,0.9-13.9,1.4-20.8c0.5-7.2,1.1-14.5,1.6-21.7c0.7-12,1.4-24.1,2-36.1
			c0.1-1.4,0.6-2.4,2-2.9c5.4-1.9,10.7-4,16.1-5.9c2.4-0.9,3.1-0.3,3,2.2c-0.2,10.4-0.7,20.8-1.4,31.1c-0.4,6.4-0.7,12.8-1.1,19.1
			c-0.6,9.1-1.2,18.2-1.8,27.2c-0.3,4.8-0.7,9.6-1,14.3c-0.1,1.5-0.7,2.1-2.1,2.3c-4.9,0.7-9.9,1.5-14.8,2.2
			c-0.3-0.4-0.3-0.8,0.2-1.2c3.2-1.3,6.8-1.2,10.1-1.8c0.9-0.2,1.9-0.3,2.8-0.5c1.5-0.3,2.4-1.2,2.5-2.8c0.4-7.6,0.9-15.2,1.5-22.7
			c0.7-8.9,0.9-17.9,1.7-26.8c0.3-3.6,0.4-7.2,0.5-10.8c0.2-9.3,1.2-18.5,1.1-27.8c0-2.8-0.3-3.2-3-2.2c-4.1,1.5-8.3,3-12.4,4.6
			c-1.8,0.7-2.4,1.8-2.5,3.6c-0.8,13.7-1.3,27.5-2.5,41.1c-1.2,13.6-1.6,27.3-3.1,40.9c-0.2,1.7-0.9,3.7,1,5.1
			c0.5,0.3,1.1,0.4,1.1,1.1c-0.3,0-0.6,0.1-0.9,0.1c-0.8,0.3-1.7,0.3-2.5,0c-0.8-0.7-0.3-1.6-0.3-2.4c0.4-1-0.1-2.1,0.3-3.1
			c0-1.1,0.1-2.1,0.1-3.2C324.4,673.2,324,672.3,324.4,671.5z"/>
		<path class="st2" d="M420.5,583.8c-3.6-0.4-7,0.9-10.6,1.2c-2.9,0.3-5.7,1.2-8.6,1.2c-0.1-0.1-0.2-0.2-0.1-0.3
			c0-0.1,0.1-0.2,0.1-0.2c6.1-1,12.2-2,18.4-3c2.1-0.3,2.4,1,2.3,2.6c-0.4,8-0.7,16-1.1,24c-0.4,8-0.9,16-1.3,23.9
			c-0.6,13.7-1.1,27.3-1.6,41c-0.1,2.4-0.9,3.7-3.4,4.3c-4.4,1-8.7,2.4-13,3.8c-2.1,0.7-3.2,0-4-2c-4.6-11.3-9.3-22.6-14-33.8
			c-2-4.9-4.2-9.8-6.3-14.6c0.8-0.1,1.1,0.5,1.4,1.1c3.6,8.4,7.2,16.8,10.8,25.3c3.1,7.3,6.1,14.6,9.1,21.9c0.5,1.3,1.3,1.9,2.8,1.5
			c4.6-1.4,9.1-2.8,13.7-4.1c1.5-0.4,2.3-1.3,2.2-2.9c-0.4-3.4-0.4-6.7,0-10.1c0.4-0.3,0.5-0.8,0.5-1.3c-0.2-5.1,0.3-10.2,0.5-15.3
			c0.3-11.9,1.4-23.7,1.6-35.5c0.1-6,0.7-12.1,0.9-18.1c0-1.4,0.3-2.8,0.4-4.3C420.3,587.9,421.2,585.8,420.5,583.8z"/>
		<path class="st2" d="M139.6,666.4c0.1-13.7,0.3-27.3,0.4-41c0.1-9.4,0.2-18.9,0.2-28.3c0-2,0.4-3,2.8-3.4
			c14.7-2.5,29.5-4.7,44.3-7.1c1.7-0.3,3.3-0.6,4.9-0.8c2.3-0.4,3.2,0.4,2.9,2.6c-0.8,6.1-1.7,12.1-2.6,18.2c-0.2,1.5-0.6,3-0.7,4.5
			c0,2-1.2,2.4-2.8,2.5c-1.9,0-3.8,0.1-5.8,0.1c-2,0.5-4-0.1-5.9,0.3c-1.5,0-3.1,0.1-4.6,0.1c-1.8,0.4-3.5,0.1-5.3,0.2
			c-0.5-0.1-0.9-0.2-0.6-0.8c1.1-0.8,2.3-0.6,3.5-0.6c5.7-0.2,11.3-0.5,17-0.9c2.2-0.2,3-1.1,3.3-3.2c0.8-6.1,1.6-12.2,2.6-18.3
			c0.5-2.6,0-3.1-2.6-2.7c-11.7,1.7-23.4,3.5-35.1,5.4c-3.6,0.6-7.3,1-10.9,1.9c-3,0.8-3.1,0.8-3.1,4.1c0,0.3,0,0.6,0,1
			c0.4,20.6-0.7,41.3-0.5,61.9c0,1.4,0,2.9-0.8,4.2C140.1,666.4,139.9,666.5,139.6,666.4z"/>
		<path class="st2" d="M217.3,615.5c-0.2,5.2-1.2,10.3-1.7,15.4c-0.5,4.9-1.1,9.8-1.7,14.7c-0.8,6.9-1.5,13.7-2.3,20.6
			c-0.7,6.1-1.4,12.2-2,18.2c-0.1,1.4,1,1.3,1.8,1.2c2.1-0.3,4.2-0.6,6.4-0.9c4.6-0.6,9.1-1.4,13.7-1.8c1.9-0.2,2.1-1.2,2.1-2.7
			c0-12.6-0.2-25.1,0.1-37.7c0.2-7.9,0.4-15.8,0.4-23.7c0-0.2-0.1-0.5,0-0.7c0.4-1.7-1.2-3.9,0.1-5c1.7-1.5,4.3-1.4,6.6-1.4
			c0.5-0.3,0.9-0.4,1,0.4c-1.7,0.3-3.5,0.6-5.2,0.8c-1.6,0.1-2,0.8-2,2.4c0.1,13.5,0,27.1,0,40.6c0,8.3-0.1,16.7,0,25
			c0,1.9-0.8,2.6-2.4,2.8c-6.9,0.8-13.8,1.7-20.6,2.8c-2.3,0.4-3-0.5-2.7-2.8c1.2-10.9,2.4-21.7,3.7-32.6c1.3-11.3,2.6-22.7,3.9-34
			c0.1-0.6,0.3-1.1,0.4-1.6C217,615.2,217.2,615.2,217.3,615.5z"/>
		<path class="st2" d="M262.9,686.5c-2.2,0.4-4.4,0.7-6.6,1.1c-1.9,0.4-2.7-0.3-2.6-2.3c0.4-7.2,0.7-14.4,1.1-21.6
			c0.4-7.6,0.8-15.2,1.3-22.7c0.8-12.5,1.6-25,2.3-37.5c0-0.4,0-0.8,0-1.2c0.1-5,0.1-5,4.9-6c4.3-0.9,8.6-1.7,12.8-2.7
			c2-0.5,2.6,0.2,2.5,2.1c-0.4,9.9-0.6,19.8-1.1,29.7c-0.1,2.3,0.8,2.1,2.3,1.9c4.1-0.6,8.2-1.2,12.3-1.8c0.2,0.3,0.2,0.5,0.1,0.8
			c-0.7,0.8-1.7,0.9-2.6,1.1c-3.3,0.5-6.6,1.1-10,1.3c-2.7,0.2-3.4-0.4-3.5-3.2c-0.1-2.9,0.2-5.8,0.3-8.6c0.1-6.3,0.6-12.6,0.6-18.9
			c0-2.7-0.3-2.9-3-2.4c-3.8,0.7-7.5,1.6-11.3,2.4c-1.6,0.3-2.5,1.2-2.7,2.9c-0.2,1.3-0.3,2.5-0.3,3.8c-0.1,7.4-0.8,14.8-1.3,22.3
			c-0.4,6.4-0.7,12.8-1.1,19.1c-0.5,8.3-0.7,16.6-1.3,24.9c-0.3,4-0.2,8-0.5,12c-0.2,2.5,0.4,2.9,3,2.7c1.2-0.1,2.4-0.5,3.6-0.2
			C262.5,685.7,262.9,685.9,262.9,686.5z"/>
		<path class="st2" d="M87.1,638.2c0.8-1.8,1.1,0.3,1.1,0.3c1.4,2.8,2.8,5.6,4.1,8.4c4.1,9.1,8.2,18.2,12.2,27.3
			c1.1,2.5,2.2,5,3.3,7.4c0.6,1.3,1.4,2.1,3.1,1.7c4.9-1.1,9.8-2,14.7-2.9c1.4-0.2,1.8-0.9,1.8-2.2c0.1-5.4,0.3-10.8,0.5-16.3
			c0.3-9.2,0.6-18.5,1-27.7c0.2-4.9,0.1-9.9,0.4-14.8c0.5-8.3,0.8-16.6,1-24.8c0-1.5,0.5-3,0.5-4.5c0.1,0,0.2,0,0.3,0
			c0,3,0.1,6.1,0,9.1c-0.4,13.3-0.9,26.5-1.4,39.8c-0.5,12.9-1,25.9-1.4,38.8c-0.1,2.1-0.8,3.3-3.1,3.7c-4.8,0.7-9.5,1.7-14.3,2.8
			c-2.3,0.5-3.3-0.6-4.1-2.5c-5.6-12.5-11.2-25-16.9-37.5C89.1,642.1,88.1,640.2,87.1,638.2z"/>
		<path class="st2" d="M86.7,671.7c0.3-9.6-0.8-19.2-0.5-28.8c-0.1-1.3-0.9-2.7,0.4-3.8c0,2,0.1,4,0.1,6.1c0.5,3.1-0.1,6.2,0.4,9.3
			c0,3.1,0.1,6.2,0.1,9.4c0.5,2-0.1,4,0.3,6c0.1,3.2,0.2,6.4,0.3,9.6c0,1.1,0.1,2.2,0.2,3.4c0.1,1.4-0.4,2.2-1.9,2.5
			c-5.9,1-11.7,2.2-17.6,3.3c-2.4,0.4-2.8-0.2-2.7-2.5c0.2-6.1,0.5-12.1,0.7-18.2c0.7-21.7,1.3-43.5,2-65.2c0-1.3,0.2-2.5,1.6-2.8
			c5.8-1.3,11.6-2.6,17.6-2.9c-2.5,1.6-5.5,1.2-8.3,1.8c-2.8,0.6-5.6,0.9-8.4,1.6c-1.2,0.3-1.5,1-1.6,2.2c-0.4,5.7-0.2,11.3-0.5,17
			c-0.5,9.6-0.6,19.3-1,28.9c-0.2,5.2,0.1,10.4-0.4,15.5c-0.6,6-0.2,12-0.4,18c0,0.2,0,0.5,0,0.7c-0.5,5.3-0.5,5.4,4.8,4.4
			c4.4-0.8,8.7-1.6,13.1-2.4c1.7-0.3,2.5-1,2.3-2.9c-0.2-1.7,0-3.5,0-5.3C86.5,674.9,87.3,673.2,86.7,671.7z"/>
		<path class="st2" d="M359.5,602.5c0.1,10.2-1.1,20.3-1.5,30.5c-0.3,7.4-0.9,14.8-1.4,22.1c-0.6,8.7-1.2,17.5-1.6,26.2
			c-0.1,2.8,1.1,2.5,2.6,2.2c3.9-0.6,7.8-1.3,11.7-2c1.4-0.2,2.8-0.7,4.2-0.7c2.6-0.1,3.1-1.7,3.2-3.8c0.2-2.7-0.4-5.4-0.5-8.1
			c0-4.2,0-8.3,0-12.5c-0.1-7.7-0.3-15.5-0.4-23.2c0-0.5-0.7-1.9,1-1.4c0.2,15.3,0.4,30.6,0.6,45.8c0,3.3,0,3.4-3.3,4
			c-5.6,1-11.3,1.9-16.9,2.9c-2.6,0.4-3.2,0-3-2.7c0.7-12.3,1.3-24.6,2-36.9c0.8-13,1.6-26,2.4-39c0.1-1.8,0.3-3.7,0.5-5.5
			C360.2,601,359.7,601.8,359.5,602.5z"/>
		<path class="st2" d="M314.9,658.4c0,1.1-0.1,2.1-0.1,3.2c-0.4,1,0.1,2-0.4,3c0,0.8-0.1,1.5-0.1,2.3c-1-0.1-0.9-0.9-1-1.5
			c-0.1-1.4-0.1-2.7,0.2-4.1c0.3-0.9,0.3-1.9,0.3-2.8c0.1-6.2,0.8-12.4,1.2-18.7c0.5-7.6,1.1-15.2,1.6-22.7c0.4-5.7,0.9-11.3,1.2-17
			c0.3-4,0.4-8,0.7-12c0.1-1.7-0.5-2.5-2.4-2.2c-6,0.9-11.9,2.3-18,3.1c-1.7,0.2-2.2,1.3-2.2,2.9c-0.1,3.8-0.1,7.7,0.2,11.5
			c0.5,6.4,0.2,12.8,0.2,19.2c0,1.1,0.2,2.3-1,3c-0.3-0.1-0.4-0.4-0.3-0.7c-0.3-11.2-0.5-22.4-0.9-33.6c-0.1-2.4,0.6-3.5,3.2-3.9
			c6.7-0.9,13.3-2.2,20-3.5c2-0.4,2.8,0.3,2.6,2.2c-0.5,8.3-1,16.6-1.6,24.9c-0.4,5.4-0.8,10.8-1.2,16.2c-0.4,5-0.7,10-1.1,15.1
			c-0.4,1,0.1,2.1-0.3,3.1c0,1.1-0.1,2.1-0.1,3.2c-0.4,1.2,0.1,2.5-0.4,3.6c0,1-0.1,2.1-0.1,3.1
			C314.8,656.3,315.3,657.4,314.9,658.4z"/>
		<path class="st2" d="M473.8,678.4c7.6-4.3,12.3-10.9,15.5-18.8c2.8-7,3.8-14.4,4.3-21.9c0.2-2.9,0.3-5.9,0.4-8.8
			c0.1-2-0.6-3-2.8-2.8c-4.7,0.5-9.3,1-14,1.5c-4,0.5-8,1.3-12,1.8c-1.4,0.2-1.9,0.7-2,2c-0.5,4.9-0.9,9.8-0.9,14.8
			c0,1.4,0.4,1.9,2,1.6c2.2-0.4,4.6-0.1,6.9-0.5c2-0.4,2.7,0.7,2.2,2.7c-0.6,2.5-0.9,5-3,6.8c-0.1,0.2-0.3,0.2-0.4,0
			c1-2,1.9-4,2.5-6.1c0.7-2.2-0.1-2.7-2.1-2.5c-2.2,0.2-4.5,0.3-6.7,0.5c-1.9,0.2-2.6-0.4-2.5-2.4c0.4-5.2,0.7-10.4,1-15.6
			c0.1-1.5,1.1-2.1,2.4-2.2c8.9-1.1,17.7-2.3,26.6-3.4c2.6-0.3,3.6,0.6,3.6,3.6c0,3.7-0.1,7.4-0.4,11c-0.7,7.2-1.9,14.4-4.7,21.1
			c-3.2,7.6-7.9,14-15.3,18C473.8,679.1,473.8,678.8,473.8,678.4z"/>
		<path class="st2" d="M460.8,661.2c-3.1,0.9-5.3-0.2-7.6-3.7c-1.8-2.8-2.4-6-3-9.3c-0.6-3.4-0.9-6.9-0.8-10.2
			c0.3-9.8,0.4-19.8,5.2-28.9c0.9-1.8,2.1-3.4,3.6-4.7c4.3-4,9.8-2.9,12,2.6c1,2.6,2.1,5.2,2.1,8c0,1.4,0.8,1.6,1.9,1.3
			c5.4-1.4,10.7-2.9,16.1-4.4c1.5-0.4,1.4-1.7,1.2-2.7c-0.8-4.6-2.1-9-4.3-13.1c-0.8-1.6-1.9-3.1-2.9-4.7c-0.2-0.5,0-0.6,0.5-0.5
			c4.5,5.5,6.5,12.1,7.7,18.9c0.2,1.4-0.3,2.3-1.7,2.7c-5.5,1.5-11,3-16.5,4.6c-2.1,0.6-2.8-0.5-2.9-2.3c-0.2-2.6-0.8-5-1.9-7.3
			c-2.6-5.7-7.8-6.4-11.8-1.6c-3.4,4.1-4.9,9-5.9,14.1c-1.8,9.4-2.1,18.9-0.6,28.3c0.4,2.6,1,5.1,2.2,7.5
			C455,659.1,457.3,661,460.8,661.2z"/>
		<path class="st2" d="M139.6,666.4c0.1,0,0.3,0,0.4,0c1.3,1,1.2,2.4,1,3.7c-0.6,4.5-0.2,8.9-0.3,13.4c-0.1,1.8,0.8,2.4,2.5,2.1
			c5.7-1,11.3-2.1,17-3.2c1.5-0.3,2.2-1.2,2.1-2.7c-0.5-5.7-0.2-11.3-0.7-17c-0.3-3.8-0.3-7.7-0.2-11.5c0-2.5,0.8-3.2,3.4-3.3
			c4.9-0.1,9.7,0,14.6,0c2.9,0,3.1-0.2,3.3-3.1c0.3-4.4,0.7-8.8,1.2-13.1c0.1-1,0.1-1.9,0.7-2.8c0.2-0.2,0.4-0.4,0.7-0.5
			c1,2.9-0.3,5.8-0.3,8.7c0,3.2-0.6,6.4-0.7,9.5c-0.1,2.2-0.9,3-3,3c-5.2-0.2-10.4-0.2-15.6-0.4c-2.3-0.1-3.1,0.6-3,3
			c0.5,9.4,0.8,18.8,1.3,28.3c0.1,2.1-0.4,3-2.5,3.4c-6.6,1.1-13.1,2.5-19.7,3.7c-1.9,0.4-2.8-0.3-2.7-2.4
			C139.3,678.8,139.4,672.6,139.6,666.4z"/>
		<path class="st2" d="M241.8,612c-0.3-0.1-0.6-0.3-1-0.4c2.1-0.7,4.3-0.9,6.5-0.9c2.2,0,3.7-0.6,4-3.2c0.4-5.1,1-10.1,1.5-15.2
			c0-0.3,0-0.6,0-1c0.2-3.3-0.2-3.7-3.6-3.2c-7.7,1-15.4,1.8-23.1,2.9c-7.1,1-14.1,2.2-21.2,3.2c-1,0.1-2.1,0.5-3-0.3
			c4-1.1,8.1-1.4,12.2-1.9c9.1-1.3,18.1-2.5,27.2-3.7c3.6-0.5,7.1-0.7,10.7-1.1c1.5-0.2,2.1,0.5,2,1.9c-0.7,6.7-1.4,13.3-2.1,20
			c-0.1,1.2-0.7,1.9-1.7,2C247.5,611.5,244.6,611.7,241.8,612z"/>
		<path class="st2" d="M359.5,602.5c-0.1-0.7,0.2-1.4-0.4-1.9c0-0.5,0-1,0-1.5c0.4-1.2-0.1-2.4,0.3-3.5c0-1.8,0-3.7,0.1-5.5
			c0-1.8,0.9-2.7,2.7-3c4.7-0.7,9.4-1.4,14.1-2.2c1.9-0.3,2.7,0.6,3.2,2.1c2.6,6.5,5.2,13.1,7.9,19.6c3.4,8.2,6.9,16.3,10.3,24.5
			c0.1,0.2,0.1,0.5,0.1,0.7c0,0.2,0.1,0.6-0.1,0.7c-0.7,0.8-0.4-0.2-0.5-0.3c-2.1-5.1-4.3-10.1-6.4-15.2c-4-9.7-8-19.4-11.9-29.2
			c-0.7-1.6-1.6-2.5-3.4-2.1c-4.4,1.2-8.9,1.5-13.4,2.3c-1.5,0.3-1.8,0.9-1.8,2.2c0,3.6-0.7,7.1-0.5,10.7
			C360,601.5,360,602.1,359.5,602.5z"/>
		<path class="st2" d="M313.4,674.1c0.5,2.7-0.7,3.6-3.3,3.9c-4.6,0.7-9,1.8-13.6,2.7c-2.8,0.6-3.5,0-3.3-2.9
			c0.5-9.6,0.9-19.2,1.5-28.7c0.1-1.7-0.4-2-2-1.7c-2.8,0.4-5.7,0.5-8.6,0.8c-0.8,0.3-1.7,0.2-2.5,0.1c-0.2-0.3-0.2-0.5,0-0.8
			c4-0.9,8-1.5,12.1-1.6c1.5-0.1,2.2,1.1,2.4,2.5c0.2,1.8,0.2,3.7,0.1,5.5c-0.6,7.2-0.7,14.4-1.3,21.5c0,0.6-0.1,1.3-0.1,1.9
			c0,1.1,0.5,1.7,1.6,1.5c4.8-0.6,9.4-1.7,14.1-2.8c1-0.3,1.4-1.3,2-2C312.9,673.9,313.2,673.9,313.4,674.1z"/>
		<path class="st2" d="M131.2,590c-0.1,0-0.2,0-0.3,0c-5.9,0.6-11.7,1.9-17.6,2.9c-1.4,0.2-1.6,1.4-1.7,2.6
			c-0.2,3.7-0.3,7.5-0.5,11.2c-0.6,9.8-1.3,19.6-1.9,29.5c-0.1,1.6,0,3.2-0.4,4.7c-0.1-0.8-0.1-1.7-0.2-2.5c0-8.9,0.9-17.7,1.2-26.5
			c0.2-5.3,0.6-10.5,0.8-15.8c0.2-3.5,0.3-3.6,3.8-4.2c4.9-0.8,9.9-1.7,14.8-2.6C130.2,589.2,130.8,589.1,131.2,590z"/>
		<path class="st2" d="M281.7,647.7c0,0.2,0,0.3,0,0.5c-0.1,0.2-0.3,0.3-0.5,0.4c-2.4,0.1-3.4,1-3.3,3.7c0.4,9.5,0.5,19,0.9,28.5
			c0.1,2.4-0.9,3.2-3,3.5c-4.3,0.7-8.6,1.5-12.9,2.3c-0.2-0.1-0.3-0.3-0.5-0.4c0.3-1.4,1.5-1.3,2.4-1.5c3-0.7,6.1-1.2,9.2-1.7
			c2.7-0.5,3-0.9,3-3.7c0.1-8.5-0.5-16.9-0.7-25.4c0-1.1,0.1-2.1,0.2-3.1C277.1,647.6,278.6,646.7,281.7,647.7z"/>
		<path class="st2" d="M428.7,624.6c0.3,3.7-0.3,7.3-0.6,10.9c-0.6,7.9-0.1,15.6,1.6,23.2c1.4,6.2,4.3,11.6,8.6,16.3
			c-0.2,0.2-0.3,0.2-0.5,0c-5.2-4.4-7.5-10.3-9-16.7c-2.3-9.6-2-19.3-1.1-29c0.2-1.7,0.4-3.5,0.7-5.2
			C428.7,624.1,428.9,624.1,428.7,624.6z"/>
		<path class="st2" d="M107.9,640.3c-0.6,0.6-0.8,0-1-0.4c-4-9-8.1-18-12.1-26.9c-2-4.3-4-8.6-5.9-13c-0.3-0.7-1.2-1.4-0.3-2.3
			c4.1,7.9,7.3,16.2,11,24.2C102.4,628,105.1,634.2,107.9,640.3z"/>
		<path class="st2" d="M401.3,585.7c0,0.2,0,0.3,0,0.5c-1.3,2.4-0.9,5.1-0.9,7.7c-0.1,10-0.7,19.9-0.6,29.9c0,2.7-0.3,5.5-0.4,8.3
			c0,0.1-0.1,0.2-0.1,0.1c-0.1,0-0.3-0.1-0.4-0.1c0.1-6.5,0-13.1,0.2-19.6c0.2-8.1,0.5-16.3,0.8-24.4
			C399.8,587.1,399.7,585.9,401.3,585.7z"/>
		<path class="st2" d="M428.7,624.6c-0.1-0.2-0.3-0.3-0.4-0.5c0.5-5.9,2.2-11.5,4.3-17c2.6-6.9,6.3-13,11.7-18.1
			c0.6-0.6,1.3-1.1,2.1-1.5c0.6,1.1-0.5,1.4-1,1.8c-7.6,6.8-11.5,15.6-14.4,25.1C430,617.8,430,621.3,428.7,624.6z"/>
		<path class="st2" d="M166.9,613.6c0.2,0.2,0.3,0.3,0.5,0.5c0.2,0.1,0.2,0.2,0.1,0.3c-0.1,0.1-0.1,0.1-0.2,0.1
			c-5.8,0.5-5.8,0.5-5.7,6.4c0.1,2.9,0.3,5.7,0.3,8.6c0,1.5,0.8,1.5,1.8,1.3c5.6-1,11.2-2.1,16.8-3c1.5-0.2,3.3-1.5,4.6,0.6
			l-0.1,0.1c-4.5,1.2-9.1,1.5-13.7,2.5c-2.5,0.5-5,1.1-7.6,1.3c-2.4,0.3-3.3-0.5-3.4-2.8c-0.2-4.2,0.1-8.5-0.4-12.7
			c-0.3-2.3,0.9-3.3,3.3-3.4C164.5,613.3,165.7,613,166.9,613.6z"/>
		<path class="st2" d="M217.3,615.5c-0.2,0-0.3,0-0.5,0c-1.3-1-2.8-0.5-4.1-0.4c-4.4,0.3-8.7,0.8-13.1,1.3c-2.5,0.3-3.4-0.4-2.9-2.6
			c1.3-6.3,2.4-12.7,4.3-18.9c0.7,0.7,0.4,1.5,0.3,2.2c-1.2,5.2-2.3,10.4-3.4,15.6c-0.6,2.6-0.3,3,2.4,2.8c4.3-0.4,8.5-1,12.8-1.3
			C214.5,614.1,216.7,612.7,217.3,615.5z"/>
		<path class="st2" d="M437.8,675c0.2,0,0.3,0,0.5,0c1.6,0.4,2.6,1.7,4,2.5c10.4,5.6,20.9,5.9,31.6,0.9c0.2,0.2,0.4,0.3,0.5,0.5
			c-3.2,2.4-7.1,3.3-10.9,3.7c-9.2,0.9-17.8-0.7-25.1-6.8C438.1,675.5,438,675.3,437.8,675z"/>
		<path class="st2" d="M484.8,591c-0.2,0.2-0.3,0.3-0.5,0.5c-5.3-6.5-11.9-10.3-20.4-10c-4.3,0.1-8.7,1-12.4,3.5
			c-0.7,0.5-1.5,1.6-2.7,0.8C460.7,577.2,476.5,579.5,484.8,591z"/>
		<path class="st2" d="M470,656.8c0.1,0,0.3,0,0.4,0c-1.1,2.6-5.8,5.5-8.4,5.2c-0.5-0.1-0.6-0.4-0.7-0.8
			C464.9,661,467.7,659.4,470,656.8z"/>
		<path class="st2" d="M313.4,674.1c-0.2,0-0.4,0-0.5,0c-0.8-2.7-0.2-5.4,0.1-8c0.1-0.4,0.4-0.7,0.9-0.6c0,0.5-0.1,1.1,0.4,1.4
			C314.5,669.3,314.3,671.7,313.4,674.1z"/>
		<path class="st2" d="M87.1,654.4c-0.9-3.1-0.3-6.2-0.4-9.3C87.3,648.2,87.2,651.3,87.1,654.4z"/>
		<path class="st2" d="M177.5,613.9c1.9-0.8,3.9-0.3,5.9-0.3C181.4,614.2,179.4,614,177.5,613.9z"/>
		<path class="st2" d="M87.6,669.7c-0.8-2-0.3-4-0.3-6C87.8,665.7,87.6,667.7,87.6,669.7z"/>
		<path class="st2" d="M86.6,639c-0.9,1.2-0.2,2.6-0.4,3.8c-0.9-1.3-0.4-2.7-0.4-4.1c0-0.6,0.6-0.3,0.9-0.2
			C86.6,638.7,86.6,638.8,86.6,639z"/>
		<path class="st2" d="M167.4,614.4c0-0.1,0-0.3,0-0.4c1.8,0,3.6,0,5.5,0.1C171,614.6,169.2,614.5,167.4,614.4z"/>
		<path class="st2" d="M295.1,625c0,0.2,0,0.4,0,0.6c-0.7,1.7-1.8,1.2-2.9,0.5c0-0.1,0-0.3,0-0.4C293.2,625.4,294.1,625.2,295.1,625
			z"/>
		<path class="st2" d="M315.3,652.2c0.1-1.2-0.4-2.5,0.4-3.6C315.8,649.8,315.9,651.1,315.3,652.2z"/>
		<path class="st2" d="M359.4,595.6c0,1.2,0.4,2.4-0.3,3.5C359,597.9,359.1,596.7,359.4,595.6z"/>
		<path class="st2" d="M281.2,648.5c0.2-0.1,0.3-0.3,0.5-0.4c0.8,0,1.7,0,2.5,0.1C283.3,648.7,282.2,648.6,281.2,648.5z"/>
		<path class="st2" d="M314.9,658.4c0-1-0.4-2.1,0.3-3C315.3,656.4,315.4,657.4,314.9,658.4z"/>
		<path class="st2" d="M314.4,664.6c0.1-1-0.4-2.1,0.4-3C314.9,662.6,314.9,663.6,314.4,664.6z"/>
		<path class="st2" d="M315.9,645.4c0-1-0.4-2.1,0.3-3.1C316.3,643.4,316.4,644.5,315.9,645.4z"/>
		<path class="st2" d="M323.9,677.2c0,1,0.4,2.1-0.3,3.1C323.5,679.3,323.3,678.2,323.9,677.2z"/>
		<path class="st2" d="M328.3,681.8c0,0.3,0,0.6,0,0.9c-0.3,0-0.7,0-1,0c-0.3-0.1-0.6-0.3-1-0.4C326.7,681,327.5,681.3,328.3,681.8z
			"/>
		<path class="st2" d="M324.4,671.5c0.1,0.9,0.3,1.8-0.3,2.6C323.9,673.2,323.9,672.3,324.4,671.5z"/>
		<path class="st2" d="M323.9,682.7c0.8,0,1.7,0,2.5,0C325.6,683.3,324.7,683.4,323.9,682.7z"/>
		<path class="st2" d="M417.1,664.5c0,3.4,0,6.7,0,10.1c-1-2.3-0.3-4.6-0.4-7c-0.1-1.5,0-3,0-4.6C417.5,663.4,417,664,417.1,664.5z"
			/>
		<path class="st2" d="M420.5,583.8c1.1,2,0.2,4.2,0.5,6.2C419.9,588,420.8,585.8,420.5,583.8z"/>
		<path class="st2" d="M86.7,671.7c1,1.5,0.3,3.2,0.5,4.8C86.2,674.9,86.9,673.3,86.7,671.7z"/>
		<path class="st2" d="M328.3,681.8c-0.7,0.1-1.4-0.2-1.9,0.5c-1.2,0.1-1.9-0.1-1.9-1.6c-0.1-5.5,0.8-11,1.2-16.4
			c0.2-2.9,0.2-5.9,0.6-8.8c0.7-5.5,0.7-11.1,1.1-16.7c0.6-8.2,1.4-16.5,1.8-24.7c0.2-3.4,0.4-6.8,0.6-10.3c0.2-3.7,0.3-7.3,0.5-11
			c0-1.1,0.5-1.8,1.5-2.2c5-1.8,10-3.7,15.1-5.5c2.6-0.9,3-0.4,2.7,2.3c-0.1,0.8-0.1,1.6,0,2.4c0.2,9.1-0.9,18.2-1.1,27.2
			c-0.2,8.3-1,16.7-1.4,25c-0.5,9.7-1.4,19.4-1.9,29c-0.1,2-0.4,4-0.4,5.9c0,1.4-0.6,2.4-1.9,2.6
			C337.9,680.5,333.1,681.1,328.3,681.8z"/>
		<path class="st2" d="M166.9,613.6c-1.2,0.7-2.5,0.5-3.7,0.4c-1.8-0.1-2.7,0.7-2.5,2.3c0.7,4.6,0.3,9.2,0.4,13.8
			c0,1.6,1.1,1.8,2.3,1.6c5.8-1,11.5-2.2,17.3-3.1c1.4-0.2,2.9-0.8,4.4-0.1c-0.9,5.2-1.2,10.6-1.5,15.9c-0.1,0.8-0.4,1.6-0.3,2.3
			c0.2,1.9-0.9,2-2.3,2c-5.1-0.1-10.2,0-15.3,0c-3.5,0-3.4,0-3.5,3.4c-0.2,7.3,0.7,14.6,0.6,22c0,2.3,0.4,4.6,0.4,6.9
			c0,1.1-0.2,1.7-1.5,2c-6.5,1.2-12.9,2.5-19.4,3.7c-1.3,0.3-2.3,0-2.2-1.8c0.3-5-0.5-10,0.5-15c0.2-1.1-0.2-2.2-0.5-3.3
			c0.6-2.3,0.5-4.7,0.5-7.1c-0.2-20.6,0.9-41.2,0.5-61.8c0-1.8,0.6-2.4,2.4-2.7c10.3-2.1,20.8-3.6,31.2-5.2
			c5.7-0.9,11.4-1.8,17.2-2.7c2-0.4,2.9,0.2,2.6,2.3c-0.7,4.9-1.4,9.9-2.1,14.8c-0.3,1.9-0.5,3.8-0.7,5.7c-0.2,2-0.9,3-3.3,3.1
			C181.1,613,174,613.6,166.9,613.6z"/>
		<path class="st2" d="M292.3,626c1-0.2,2,0.4,2.9-0.5c0.4-0.3,0.5-0.8,0.5-1.3c0-6.2,0.2-12.3-0.1-18.5c-0.3-4.8-0.3-9.7-0.4-14.5
			c0-1.7,0.3-2.6,2.2-2.9c6.8-1.1,13.6-2.4,20.4-3.6c1.1-0.2,1.5,0.3,1.4,1.3c-0.2,4.5-0.3,9.1-0.6,13.6c-0.2,2.7-0.6,5.3-0.8,8
			c-0.4,5.2-0.5,10.5-1,15.7c-0.7,7.8-0.9,15.7-1.8,23.5c-0.5,3.9-0.4,7.8-0.6,11.7c-0.6,0.7,0.1,1.7-0.5,2.4c0,1.4,0,2.9,0,4.3
			c-0.9,1-0.4,2.1-0.4,3.2c0,1.8-0.1,3.6-0.5,5.4c0,1.9-0.9,2.7-2.9,3c-4.5,0.7-9,1.8-13.5,2.7c-1.5,0.3-2.5,0.1-2.3-1.9
			c0.7-7.4,0.6-14.9,1.4-22.3c0.3-2.4,0.1-4.8,0.1-7.2c0-1.4-0.6-2-2.3-1.9c-3.9,0.2-7.7,1.4-11.6,1.1c-1,0.2-2,0.3-3,0.5
			c-0.8,0.1-1.2,0.7-1.3,1.5c-0.2,6.3-0.1,12.7,0.3,19c0.3,4.3,0.1,8.6,0.2,12.9c0,1.3-1,1.5-2,1.7c-4.1,0.8-8.2,1.6-12.4,2.4
			c-0.4,0.1-0.7,0.3-1,0.5c-2,0.2-4,0.3-5.9,0.5c-1.2,0.1-1.8-0.3-1.7-1.6c0.3-5.2,0.6-10.5,0.9-15.7c0.2-3.2,0.4-6.4,0.4-9.5
			c0.1-7.9,0.9-15.7,1.2-23.6c0.2-7.7,0.9-15.4,1.5-23.1c0.3-4.4-0.2-8.8,0.7-13.1c0.3-1.3,0.7-2,2-2.3c5-1.1,9.9-2.1,14.9-3.2
			c1.3-0.3,1.5,0.5,1.5,1.5c-0.1,3.4-0.3,6.9-0.3,10.3c-0.1,6.5-0.6,12.9-0.6,19.4c0,2,0.2,2.9,2.8,2.5c3.8-0.6,7.7-1,11.5-1.6
			C291.6,626.4,291.9,626.2,292.3,626z"/>
		<path class="st2" d="M313.9,661.1c0.1-0.8-0.3-1.7,0.5-2.4C314.2,659.5,314.7,660.4,313.9,661.1z"/>
	</g>
	<g class="st4">
		<path class="st1" d="M488.6,594.7c1.3-5.3,2.5-10.5,3.8-15.8c0.4-1.8,1.6-2.4,3.4-2c5,1.1,10,2.3,15,3.4c1.8,0.4,2.5,1.5,2.1,3.3
			c-1.2,5.3-2.4,10.6-3.6,15.9c-0.4,1.6-1.4,2.4-3.1,1.9c-5.2-1.3-10.3-2.6-15.5-3.7C488.7,597.3,488.3,596.3,488.6,594.7z"/>
		<path class="st1" d="M511.9,583.8c-1.3,5.2-2.5,10.4-3.8,15.5c-0.3,1.3-1.5,1.3-2.6,1c-4.6-1.1-9.3-2.2-13.9-3.4
			c-1.8-0.4-2.6-1.3-1.9-3.4c1.3-4.4,2.5-8.8,3.3-13.3c0.4-2.2,1.5-2.6,3.3-2.3c4.4,0.9,8.8,1.9,13.1,2.9
			C511,581.2,512.3,581.8,511.9,583.8z"/>
		<path class="st1" d="M496,581.3c4.2,0.1,8.4,0.7,12.3,2.5c0.4,0.2,0.9,0.4,0.8,1c-1.2,3.9-1.2,8.1-3.5,11.6
			c-0.2-0.2-0.4-0.5-0.5-0.8c-0.1-2.8,0.8-5.4,1.4-8c0.5-2,0-3-2.1-3.4c-2.8-0.6-5.7-0.9-8.4-2.2C495.8,581.9,495.8,581.6,496,581.3
			z"/>
		<path class="st1" d="M505.5,595.8c0,0.2,0,0.5,0,0.7c-2.9,1.5-5.4-0.6-8-1.1c-5.5-1.1-5.5-1.3-3.9-6.8c0.7-2.4,0.6-5.1,2.4-7.2
			c0,0.2,0,0.5,0,0.7c1.2,2.9-0.4,5.5-1,8.2c-0.6,3-0.8,3,2.2,3.7C500,594.4,502.8,595.1,505.5,595.8z"/>
	</g>
	<g class="st4">
		<path class="st2" d="M490.5,554.1c-1.6-2.1-3.3-4.3-4.9-6.4c-1.5-2-1.5-2.1,0.7-3.6c2.2-1,3.8-2.9,5.7-4.3c0.5-0.4,1-0.8,1.4-1.2
			c1.8-1.5,2.1-1.4,3.6,0.3l0,0c1.2,1.7,2.1,3.5,3.7,4.8c0.6,0.7,1.2,1.4,1.8,2.1c1.5,1.9,1.4,2-0.6,3.4c-1.4,0.4-2.3,1.5-3.2,2.6
			c-0.2,0.5-0.5,0.7-1,0.9c-1.3,0.3-2,1.5-3,2.2c-1.9,1.3-1.9,1.4-3.5-0.4C491,554.3,490.8,554.2,490.5,554.1z"/>
		<path class="st2" d="M531,579.5c1.5,1.7,3,3.4,4.6,5.1c0.7,0.7,0.5,1.3,0,1.9c-0.6,0.6-1.3,1.1-2,1.7c-2.4,1.3-4.1,3.5-6.1,5.2
			c-1.6,1.3-2,1.4-3.4-0.2c-1.2-1.4-2.3-2.8-3.6-4.1c-0.7-1.2-1.7-2.2-2.6-3.2c-0.9-1.1-0.9-2.1,0.2-2.9c2.2-1.7,4.2-3.8,6.3-5.6
			c0.1-0.1,0.3-0.3,0.4-0.4c2-1.7,2.2-1.7,3.8,0.2C529.5,578.1,529.9,579.1,531,579.5z"/>
		<path class="st2" d="M478.3,563.1c0.4-0.3,0.9-0.3,1.4-0.3c2.8,0,5.5-0.6,8.2-1c1.4-0.3,2.4,0,2.8,1.4l0,0
			c0.3,3.2,0.9,6.4,1.5,9.6c0.3,2,0.1,2.5-1.8,2.8c-3.3,0.4-6.5,1.1-9.8,1.5c-1.4,0.2-2-0.2-2.2-1.6c-0.3-3.3-0.8-6.5-1.5-9.8
			C476.6,564.4,477.2,563.6,478.3,563.1z"/>
		<path class="st2" d="M510.3,543.3c1.7-3.2,3.3-6.5,5-9.7c0.6-1.1,1.5-1.3,2.5-0.8c3.1,1.6,6.2,3.1,9.3,4.7
			c1.1,0.6,1.4,1.4,0.8,2.5c-1.6,3.3-3.3,6.5-4.9,9.8c-0.5,1-1.3,1.3-2.4,0.8c-3.2-1.7-6.3-3.4-9.5-4.9
			C510,545,509.8,544.3,510.3,543.3z"/>
		<path class="st2" d="M478.3,563.1c-1.7,1.3-1,3-0.7,4.6c0.4,2.4,0.9,4.8,1,7.3c0.1,1.2,0.5,1.9,2,1.7c3.3-0.6,6.6-1,9.9-1.5
			c1.3-0.2,1.7-0.8,1.4-2.1c-0.5-2.7-0.9-5.4-1.3-8c-0.1-0.6-0.2-1.2,0.1-1.9c1,3.5,1.3,7.1,1.9,10.7c0.2,0.9-0.3,1.6-1.3,1.8
			c-3.8,0.6-7.6,1.2-11.3,1.8c-0.9,0.1-1.6-0.3-1.7-1.3c-0.5-3.7-1.1-7.4-1.7-11.1C476.3,563.6,476.9,563,478.3,563.1z"/>
		<path class="st2" d="M528.3,556.3c3-1.4,6.4-1.5,9.6-2.1c4-0.8,4-0.6,4.6,3.4c0.4,2.7,0.9,5.3,1.3,8c0.3,1.7-0.2,2.7-2,2.8
			c-0.9,0.1-1.8,0.2-2.8,0.4c-0.4,0.1-0.5-0.2-0.4-0.5c0.6-0.8,1.5-0.7,2.2-0.8c1.3-0.1,2-0.8,1.8-2.2c-0.5-3.1-1-6.1-1.6-9.2
			c-0.3-1.6-1.6-1.2-2.6-1c-3,0.7-6,1.2-8.9,1.8c-0.4,0.1-0.7,0.2-1.1,0.1C528.1,556.8,528,556.5,528.3,556.3z"/>
		<path class="st2" d="M502.5,582.5c2.1,0.8,4.2,1.6,6.3,2.4c1,0.4,1.4,1,0.9,2.1c-1.5,3.4-2.9,6.7-4.3,10.1
			c-0.9,2.1-2.3,1.1-3.6,0.7c0.1-0.4,0.4-0.5,0.7-0.6c1.2-0.1,1.9-0.7,2.3-1.9c0.9-2.4,2-4.7,3-7c0.8-1.8,0.7-2-1.1-2.8
			c-1.9-0.8-3.8-1.4-5.6-2.3c-0.6-0.3-1.2-0.4-1.5-1.1c0-0.3,0.1-0.4,0.3-0.4C500.9,581.9,501.8,582,502.5,582.5z"/>
		<path class="st2" d="M502.4,597.6c-0.2,0.1-0.3,0.1-0.5,0.2c-2.9-1.1-5.8-2.2-8.7-3.4c-0.7-0.3-1.3-0.8-0.9-1.9
			c1.5-3.7,2.9-7.4,4.6-11c0.8-1.7,2-0.4,3.1-0.1c0.1,0.1,0.1,0.2,0.1,0.2c-0.1,0.1-0.1,0.1-0.1,0.1l0,0c-1.8,0.3-2.7,1.5-3.2,3.2
			c-0.6,2-1.5,3.9-2.4,5.7c-1,2.1-0.9,2.2,1.1,3.1c1.8,0.8,3.7,1.6,5.6,2.3C501.5,596.4,502.5,596.5,502.4,597.6z"/>
		<path class="st2" d="M528.3,556.3c0.1,0.2,0.2,0.4,0.3,0.6c1,3.2,1,6.6,1.7,9.9c0.5,2.4,0.5,2.4,2.9,2.1c1.2-0.1,2.3-0.5,3.5-0.7
			c0.7-0.1,1.4-0.4,2,0.1c0.1,0.2,0.2,0.3,0.3,0.5c-2.6,0.5-5.1,1.1-7.7,1.6c-1.2,0.2-1.7-0.3-1.9-1.4c-0.5-3.6-1.1-7.2-1.7-10.9
			C527.6,557.3,527.6,556.7,528.3,556.3z"/>
		<path class="st2" d="M520.7,589.1c1.4,1,2.5,2.2,3.5,3.6c1.3,1.7,1.7,1.8,3.3,0.3c1.8-1.6,3.5-3.2,5.3-4.7c0.2-0.2,0.5-0.7,0.8,0
			c-2,1.9-4.1,3.8-6.1,5.7c-1.2,1.1-2.2,1.3-3.3-0.2c-1.1-1.5-2.4-2.9-3.6-4.3c-0.1-0.1-0.1-0.2,0-0.3
			C520.6,589.1,520.7,589,520.7,589.1z"/>
		<path class="st2" d="M520.7,589.1c0,0.1-0.1,0.2-0.1,0.4c-1-1.2-2-2.3-3-3.5c-0.9-1.1-0.9-2.1,0.2-3.1c2.3-1.9,4.5-3.9,6.8-5.8
			c0.2,0.1,0.2,0.4,0.3,0.5c-2.1,1.8-3.9,3.8-6.2,5.5c-1.1,0.8-1.3,1.7-0.3,2.8C519.3,586.8,520.4,587.7,520.7,589.1z"/>
		<path class="st2" d="M497,538.9c-1.3-1.4-2.5-0.9-3.7,0.2c-1.9,1.7-3.8,3.2-5.8,4.7c-0.3,0.2-0.7,0.9-1.2,0.2
			c2.6-2.2,5.2-4.4,7.9-6.5C495.5,536.5,496.2,536.9,497,538.9z"/>
		<path class="st2" d="M490.7,563.2c-0.8-1.1-1.8-1.3-3.1-1c-2.1,0.4-4.3,0.7-6.5,1c-0.5,0.1-1.1,0.4-1.5-0.4c3-0.5,6-1,9-1.5
			C490.1,561.1,490.9,561.7,490.7,563.2z"/>
		<path class="st2" d="M490.5,554.1c0.2-0.1,0.4-0.2,0.5-0.2c0.7,0.4,1.1,1.8,2,1.5c1-0.3,1.7-1.3,2.6-1.7c0.7-0.3,0.8-1.8,2.1-1
			c-0.8,0.7-1.6,1.4-2.4,2.1C492.9,556.7,492,556.8,490.5,554.1z"/>
		<path class="st2" d="M524.9,577.6c-0.1-0.2-0.2-0.4-0.3-0.5c2.1-2.3,2.5-2.3,4.4-0.1c0.7,0.8,1.4,1.7,2.1,2.5
			c-1.2,0.3-1.4-0.8-1.9-1.4C527.1,575.8,527.1,575.7,524.9,577.6z"/>
		<path class="st2" d="M500.7,543.6c-2.1-0.9-2.9-2.8-3.7-4.8C498.6,540.1,499.6,542,500.7,543.6z"/>
		<path class="st2" d="M498.7,551.7c0.5-1.3,2-2.6,3.2-2.6C500.8,550,499.8,550.8,498.7,551.7z"/>
		<path class="st2" d="M499.9,581.8c0-0.1,0.1-0.2,0.1-0.3c0.9,0.3,1.9,0.3,2.6,1.1C501.6,582.3,500.7,582,499.9,581.8z"/>
		<path class="st2" d="M494.4,551.5c1.4-1.6,3.2-2.7,4.9-4c0.3,0.1,0.6-0.6,0.7-0.1C500,548.1,495.2,551.5,494.4,551.5z"/>
		<path class="st2" d="M498.5,545.7c-0.3-0.4-0.6-0.7-0.8-1.1C498.5,544.6,498.8,544.9,498.5,545.7z"/>
		<path class="st2" d="M526.1,590.9c1.8-1.6,3.6-3.1,5.4-4.7c0.3-0.3,0.9-0.4,0.7-1c-0.1-0.3-0.1-0.5,0.2-0.7c0.8,0.7,0.8,1.3,0,2
			c-1.9,1.6-3.7,3.2-5.6,4.7c-0.4,0.3-0.8,0.8-1.2,0C525.7,591.1,525.9,591.1,526.1,590.9z"/>
		<path class="st2" d="M532.3,584.5c-0.1,0.2-0.1,0.5-0.2,0.7c-1.7-1.9-3.5-3.7-5-5.9c1.3,0,1.6,1.2,2.3,1.8
			C530.5,582.2,531.4,583.4,532.3,584.5z"/>
		<path class="st2" d="M526.1,590.9c-0.2,0.1-0.3,0.2-0.5,0.3c-1.1-1-2.2-1.9-2.4-3.5C524.1,588.8,525.1,589.9,526.1,590.9z"/>
		<path class="st2" d="M479.8,566.4c0.4,2.2,0.8,4.4,1.1,6.6c0.1,1,0.5,1.1,1.4,0.9c2.2-0.4,4.4-0.7,6.6-1c0.3,0.9-0.5,0.7-0.9,0.7
			c-2,0.4-4,0.7-5.9,1.1c-1.1,0.3-1.6-0.2-1.8-1.1c-0.4-2.3-0.8-4.6-1.1-6.9C479.1,566.4,479.4,566.3,479.8,566.4z"/>
		<path class="st2" d="M487.8,564.8c-2.6,0.1-5.1,1-7.7,0.9c-0.1-0.2-0.8-0.4-0.2-0.5c2.6-0.5,5.1-0.9,7.7-1.2
			C488.2,563.9,488.4,564.3,487.8,564.8z"/>
		<path class="st2" d="M527.3,539.9c-1.7,3.2-3.3,6.4-5,9.5c-0.4,0.8-1.2,0.6-1.8,0.3c-2.9-1.5-5.7-3-8.5-4.4
			c-1.1-0.6-1.5-1.2-0.7-2.5c1.6-2.6,3.1-5.4,4.3-8.2c0.6-1.4,1.4-1.5,2.5-0.9c2.7,1.3,5.4,2.6,8.1,4
			C527.1,538.1,527.9,538.7,527.3,539.9z"/>
		<path class="st2" d="M538.7,568.2c-2.3,0.5-4.7,1-7,1.4c-0.6,0.1-1.3,0.3-1.5-0.6c-0.7-4-1.6-8-1.7-12.1c1.3-0.9,2.9-0.7,4.3-1.1
			c2.3-0.6,4.6-0.9,6.9-1.3c1-0.2,1.6,0.1,1.7,1.2c0.5,3.1,1.2,6.2,1.6,9.3c0.3,2.3-0.2,2.8-2.5,3C540,568,539.3,568.1,538.7,568.2z
			"/>
		<path class="st2" d="M502.4,597.6c-1.4-1.3-3.3-1.3-4.9-2.1c-1.1-0.6-2.3-1.2-3.6-1.6c-1.1-0.3-1.2-1.1-0.7-2.1
			c1.3-2.7,2.6-5.4,3.5-8.3c0.5-1.6,1.5-2.5,3.3-1.7c2.4,1.6,5.2,2.5,7.9,3.4c1.4,0.5,1.7,1,1.2,2.3c-1.3,3.1-2.9,6.1-4,9.4
			C504.5,598,503.3,597.5,502.4,597.6z"/>
		<path class="st2" d="M517.3,535.8c2.8,0.7,5.3,1.8,7.6,3.6c0.2,0.2,0.6,0.4,0.3,0.8c-1.4,2.3-2.1,5.1-4.2,7
			c-0.1-0.2-0.2-0.4-0.2-0.6c0.4-1.8,1.4-3.4,2.2-5c0.7-1.2,0.5-1.9-0.8-2.5c-1.8-0.8-3.6-1.5-5.1-2.8
			C517.1,536.1,517.1,535.9,517.3,535.8z"/>
		<path class="st2" d="M521.2,546.7c0,0.2-0.1,0.3-0.1,0.5c-2.1,0.5-3.4-1.3-5.1-2c-3.4-1.6-3.4-1.8-1.5-5.1
			c0.9-1.5,1.2-3.3,2.7-4.3c0,0.1-0.1,0.3-0.1,0.4c0.3,2.1-1.1,3.5-1.9,5.2c-0.9,1.9-1,1.8,0.9,2.7
			C517.8,544.9,519.5,545.8,521.2,546.7z"/>
		<path class="st2" d="M531.3,558.4c-0.1,2.7,0.8,5.3,1.1,7.9c0.1,0.5,0.5,0.4,0.9,0.4c2.2-0.4,4.3-0.8,6.5-1.2
			c0.6-0.1,0.8-0.4,0.7-1c-0.1-0.7-0.2-1.5-0.3-2.2c0.1-0.2,0.2-0.2,0.4-0.3c0,0.1,0.1,0.1,0.1,0.2c0.5,3.7,0.5,3.7-3.2,4.4
			c-1.5,0.3-3.1,0.5-4.6,0.9c-1.2,0.3-1.4-0.2-1.4-1.1c0-2.4-0.4-4.6-1-6.9C530.2,558.6,530.4,558.5,531.3,558.4z"/>
		<path class="st2" d="M540.5,562c-0.1,0.1-0.3,0.2-0.4,0.3c-0.2-1.3-0.6-2.5-0.7-3.8c-0.1-1.1-0.6-1.5-1.7-1.1
			c-1.4,0.4-2.8,0.8-4.2,0.7c-0.2-0.3-0.2-0.5,0.1-0.6c1.9-0.1,3.7-0.5,5.4-1.3c0.6-0.3,0.6,0.2,0.7,0.5
			C540,558.4,540.6,560.1,540.5,562z"/>
		<path class="st2" d="M495.3,591.9c-0.2-0.3-0.3-0.6-0.1-0.9c1.2-1.8,1.9-3.8,2.6-5.8c0.5-1.3,1-1.8,2.5-1c1.6,0.8,3.3,1.6,5,2.2
			c1.8,0.6,1.7,1.5,1.1,2.8c-0.7-0.1-0.5-0.7-0.7-1.1c-1.6-1.5-3.8-1.9-5.7-2.7c-0.8-0.4-1,0.4-1.3,1c-0.8,1.7-1.3,3.7-2.5,5.2
			C495.9,591.8,495.6,591.9,495.3,591.9z"/>
		<path class="st2" d="M506.3,588c-0.1,0.4-0.3,0.8,0,1.2c-1.2,1.4-1.2,3.3-2.1,4.8c-0.6,1.1-1.3,1.5-2.4,1
			c-2.2-1.1-4.7-1.3-6.5-3.1c0.1-0.1,0.3-0.2,0.4-0.3c1.6,0.1,3,0.8,4.4,1.5c2.6,1.1,2.7,1.1,3.8-1.4c0.4-0.9,0.8-1.8,1.3-2.7
			C505.4,588.5,505.6,587.8,506.3,588z"/>
	</g>
</g>
<g id="_x31_" class="st0">
	<path class="st5" d="M499.6,270.9L64.7,302.6c-6.6,0.5-12.4-4.5-12.8-11.1l-7.7-106.3c-0.5-6.6,4.5-12.4,11.1-12.8l434.8-31.7
		c6.6-0.5,12.4,4.5,12.8,11.1l7.8,106.3C511.1,264.6,506.1,270.4,499.6,270.9z"/>
	<path class="st5" d="M499.7,191.6l-16.4-7c-9-3.8-15.2-12.2-16.2-21.9l-1.7-15.8c-0.1-1.2,0.7-2.3,1.9-2.5c2.2-0.4,4.1-0.8,5.7-1.2
		c0.6-0.1,2.4-0.5,4.7-1.4c1.4-0.6,2.1-0.8,2.2-1.2c1.2-2.3-7.8-6.5-7.6-12.1c0.1-2.4,2.1-4.4,6.1-8.3c3-2.9,5.8-4.9,7.8-6.2
		c1-0.7,2.1-1.4,3.1-2c0.1-0.1,0.2-0.1,0.4-0.2c1.6-0.7,3.6-1.2,5.7-0.7c4.4,1.2,5.4,7.2,8.2,7.1c3.2-0.1,3.2-8.4,8.7-10.2
		c3.6-1.2,8.3,0.7,8.9,1c1.3,0.5,2.3,1.1,3,1.6c0,0,4.3,1.6,8.9,4.1c0.2,0.1,0.5,0.2,0.8,0.5c0.8,0.8,1.8,2.1,2.3,3.8
		c1.2,4.4-2.1,7.6-0.7,9.3c1.5,1.8,5.5-1,9.2,1c2.1,1.2,3.1,3.4,3.7,5.3c0,0.1,0.1,0.3,0.1,0.4l2,18.5c0,0.4,0,0.7-0.1,1
		c-0.4,1.2-1.2,2.7-2.6,3.9c-3.2,2.7-6.9,1.4-7.9,3.4c-1.1,2.1,2.7,4.4,2.7,9c0,2.2-0.9,4-1.6,5.2c-0.1,0.2-0.3,0.4-0.5,0.6
		c-3.2,2.5-9.3,7.1-16,11.9c-1.5,1-3.3,2.3-5.4,1.9c-3.7-0.6-4.7-5.6-7.1-5.3c-2.3,0.2-2.3,4.5-5.8,6.2
		C503.7,192.5,501.4,192.1,499.7,191.6z"/>
	<g class="st4">
		<path class="st1" d="M395.6,216.6c0.3,0.1,0.6,0.2,0.9,0.4c0.6-2.6,0.5-5.3,0.5-8c-0.1-9.7,0.7-19.3,0.6-29c0-2.1,0.4-4.3,0.4-6.4
			c0-0.9,0-2,0.9-2.6c6.2-1.3,12.4-2.1,18.6-3c0.5-0.1,0.9,0.1,1.2,0.6c0.6,2.1,0,4.4,0.5,6.5c-0.5,5.8-0.6,11.6-1,17.4
			c-0.5,8.3-0.6,16.7-1.3,25c-0.3,3.6-0.4,7.3-0.5,11c-0.1,5.7-0.8,11.3-0.6,17c0.1,1.3,0,2.7-0.6,3.9c-0.9-0.1-0.6-0.5-0.5-0.7
			c0.8,3.3,0,6.9,0.5,10.4c0.2,2.1-0.9,3.2-2.9,3.7c-4.3,1.2-8.6,2.4-12.9,3.7c-2.4,0.7-2.9,0.4-3.8-1.8
			c-6.4-15.7-12.9-31.3-19.7-46.7c-0.2-0.5-0.5-1-1-1.3c-0.1,0-0.2,0.1-0.3,0.1c-0.8,0.7-0.5,1.6-0.5,2.5c-0.1,12,0.7,24,0.5,35.9
			c0,2.5,0.2,4.9,0.2,7.4c-0.1,2.6-0.5,3.1-2.9,3.5c-5.6,0.9-11.2,1.9-16.8,2.8c-2.4,0.4-2.7,0-2.6-2.4c0.2-12.3,1.4-24.5,2-36.8
			c0.4-7.6,0.8-15.3,1.4-22.9c0.5-6.3,0.6-12.6,1.1-18.9c0.3-4.1,0.6-8.3,0.7-12.4c0.1-1.9,0.6-2.8,2.7-3.2
			c4.3-0.6,8.7-1.2,12.9-2.1c2.1-0.5,3.1,0.3,3.8,2.1c2.1,5.3,4.3,10.6,6.5,16c3.6,9,7.5,18,11.2,27
			C394.9,215.8,394.9,216.4,395.6,216.6z"/>
		<path class="st1" d="M84.8,223c-0.1,0.1-0.3,0.2-0.4,0.3c-1,1.7-0.3,3.4-0.2,5.2c0.2,9.2,0.6,18.5,0.6,27.7
			c0.3,1.7-0.1,3.5,0.3,5.3c-0.1,1.9,0.2,3.8,0.3,5.7c0.1,1.3-0.5,2.1-1.8,2.3c-5.9,1.2-11.7,2.3-17.6,3.2c-1.6,0.3-2.1-0.4-2-2
			c0.4-9.6,0.6-19.3,0.8-28.9c0.4-15.1,1.1-30.1,1.4-45.2c0.1-2.9,0.5-5.7,0.4-8.6c0-2.8,0.1-3,3-3.6c3.6-0.8,7.2-1.3,10.8-1.9
			c1.6-0.3,3.3-0.4,4.9-0.9c0.6,0.1,0.8,0.4,0.9,0.9c0.3,2.8,2,5,3.1,7.4c4.6,10.9,9.8,21.6,14.5,32.4c0.4,1,0.8,2.1,1.7,2.8
			c1.1-0.3,0.3-1.4,0.8-2c0.1,0.2,0.5,0.5,0.2,0.8c0.3,0,0.2-0.2,0.2-0.3c0-5.4,0.4-10.7,0.8-16c0.5-7.4,0.6-14.8,1.3-22.2
			c0.2-1.7,0-3.4,0.1-5c0.1-1.5,0.6-2.8,2.4-3.1c5.4-1,10.8-1.9,16.3-2.8c0.3-0.1,0.6,0,0.9,0.2c0.6,3.6,0,7.3,0,10.9
			c0,2-0.3,4-0.4,6c-0.4,13.3-0.8,26.6-1.3,39.9c-0.2,6.5-0.7,12.9-0.6,19.4c0,4-0.6,8-0.5,12c0,1.7-0.7,2.6-2.5,2.9
			c-5,0.9-10,1.8-15,2.9c-1.7,0.4-2.3-0.8-2.9-1.9c-2.2-4.5-4.2-9.2-6.3-13.7c-2.7-6-5.4-11.9-8.1-17.9c-1.5-3.4-3.1-6.7-4.7-10
			C85.9,224.3,85.9,223.2,84.8,223z"/>
		<path class="st1" d="M458.5,246c0.2,0,0.3,0,0.5,0c2.6,0.7,6.8-1.2,8.8-4c0.2-0.3,0.3-0.6,0.5-0.8c1.2-1.9,2-4,2.5-6.2
			c0.4-2,0-2.6-2-2.4c-2.2,0.2-4.5,0.1-6.7,0.5c-2,0.3-2.6-0.5-2.6-2.3c0.1-4.9,0.4-9.9,1-14.8c0.1-1.3,0.8-2,2.1-2.2
			c8.6-1.3,17.2-2.4,25.8-3.3c2.7-0.3,3.8,0.4,3.7,3c-0.3,12.5-1,24.9-7.1,36.3c-3.1,5.8-7.4,10.6-13.2,13.9
			c-12.2,5.7-23.8,5.1-34.9-2.9c-0.3-0.2-0.7-0.4-1-0.6c-6.2-5.7-8.7-13.2-9.9-21.2c-1.2-8.2-1.2-16.5-0.2-24.7
			c0.2-1.4,0.2-2.8,0.4-4.3c1.6-10.3,4.4-20.2,10.4-29c2.1-3.1,4.9-5.6,7.4-8.3c0.6-0.9,1.6-1.4,2.5-1.8c0.8,0.1,1.3-0.4,1.9-0.8
			c12.1-7.1,25.5-4.5,33.9,6.4c4,5.2,6,11.2,7.2,17.6c0.5,2.4,0.1,2.8-2.3,3.5c-4.9,1.5-9.9,2.6-14.8,4.1c-2.2,0.7-2.6,0.3-3-2
			c-0.5-3.4-1.1-6.8-3.3-9.6c-2.3-3-5.5-3.5-8.7-1.4c-3.8,2.5-5.5,6.4-6.9,10.4c-1.9,5.3-2.5,10.8-2.9,16.4c-0.5,7-0.2,14,1.3,20.9
			c0.6,2.8,1.6,5.5,3.7,7.7C454.3,245.5,456.1,246.7,458.5,246z"/>
		<path class="st1" d="M198.7,179.7c0-0.6,0.4-0.9,0.9-0.9c5.7-0.3,11.2-1.5,16.8-2.2c8.3-1,16.6-2.3,24.9-3.2
			c2.5-0.3,5.1-0.7,7.6-0.9c2.3-0.1,2.4,0.2,2.2,2.4c-0.4,5.4-1.2,10.8-1.6,16.2c-0.3,4-0.9,4.6-4.8,4.8c-2.2,0.1-4.3,0.5-6.4,0.8
			c-1.6,0.4-3.3,0.4-5,0.7c-1.1,0.2-1.5,0.8-1.5,2c0.2,22-0.3,44-0.1,65.9c0,1.6-0.6,2.5-2.3,2.7c-6.6,0.9-13.3,1.5-19.9,2.8
			c-2.3,0.4-2.7-0.3-2.5-2.6c0.6-6.3,1.4-12.7,2.1-19c0.9-8.2,1.8-16.5,2.7-24.7c0.7-6.2,1.4-12.3,2.1-18.5c0.2-1.8,0.5-3.6,0.7-5.5
			c0-1.5-1.2-1.3-2.1-1.2c-4.5,0.3-9,0.8-13.5,1.2c-0.6,0-1.2,0.2-1.9,0.2c-2.1,0-2.8-0.7-2.4-2.8c1-4.5,1.9-9,2.9-13.5
			C198.2,182.9,198.8,181.4,198.7,179.7z"/>
		<path class="st1" d="M322,256.3c0.5-6.9,0.9-13.9,1.4-20.8c0.5-7.2,1.1-14.5,1.6-21.7c0.7-12,1.4-24.1,2-36.1
			c0.1-1.4,0.6-2.4,2-2.9c5.4-1.9,10.7-4,16.1-5.9c2.4-0.9,3.1-0.3,3,2.2c-0.2,10.4-0.7,20.8-1.4,31.1c-0.4,6.4-0.7,12.8-1.1,19.1
			c-0.6,9.1-1.2,18.2-1.8,27.2c-0.3,4.8-0.7,9.6-1,14.3c-0.1,1.5-0.7,2.1-2.1,2.3c-4.9,0.7-9.9,1.5-14.8,2.2
			c-0.3-0.4-0.3-0.8,0.2-1.2c3.2-1.3,6.8-1.2,10.1-1.8c0.9-0.2,1.9-0.3,2.8-0.5c1.5-0.3,2.4-1.2,2.5-2.8c0.4-7.6,0.9-15.2,1.5-22.7
			c0.7-8.9,0.9-17.9,1.7-26.8c0.3-3.6,0.4-7.2,0.5-10.8c0.2-9.3,1.2-18.5,1.1-27.8c0-2.8-0.3-3.2-3-2.2c-4.1,1.5-8.3,3-12.4,4.6
			c-1.8,0.7-2.4,1.8-2.5,3.6c-0.8,13.7-1.3,27.5-2.5,41.1c-1.2,13.6-1.6,27.3-3.1,40.9c-0.2,1.7-0.9,3.7,1,5.1
			c0.5,0.3,1.1,0.4,1.1,1.1c-0.3,0-0.6,0.1-0.9,0.1c-0.8,0.3-1.7,0.3-2.5,0c-0.8-0.7-0.3-1.6-0.3-2.4c0.4-1-0.1-2.1,0.3-3.1
			c0-1.1,0.1-2.1,0.1-3.2C322.1,258.1,321.7,257.1,322,256.3z"/>
		<path class="st1" d="M418.2,168.6c-3.6-0.4-7,0.9-10.6,1.2c-2.9,0.3-5.7,1.2-8.6,1.2c-0.1-0.1-0.2-0.2-0.1-0.3
			c0-0.1,0.1-0.2,0.1-0.2c6.1-1,12.2-2,18.4-3c2.1-0.3,2.4,1,2.3,2.6c-0.4,8-0.7,16-1.1,24c-0.4,8-0.9,16-1.3,23.9
			c-0.6,13.7-1.1,27.3-1.6,41c-0.1,2.4-0.9,3.7-3.4,4.3c-4.4,1-8.7,2.4-13,3.8c-2.1,0.7-3.2,0-4-2c-4.6-11.3-9.3-22.6-14-33.8
			c-2-4.9-4.2-9.8-6.3-14.6c0.8-0.1,1.1,0.5,1.4,1.1c3.6,8.4,7.2,16.8,10.8,25.3c3.1,7.3,6.1,14.6,9.1,21.9c0.5,1.3,1.3,1.9,2.8,1.5
			c4.6-1.4,9.1-2.8,13.7-4.1c1.5-0.4,2.3-1.3,2.2-2.9c-0.4-3.4-0.4-6.7,0-10.1c0.4-0.3,0.5-0.8,0.5-1.3c-0.2-5.1,0.3-10.2,0.5-15.3
			c0.3-11.9,1.4-23.7,1.6-35.5c0.1-6,0.7-12.1,0.9-18.1c0-1.4,0.3-2.8,0.4-4.3C418,172.8,418.9,170.6,418.2,168.6z"/>
		<path class="st1" d="M137.3,251.2c0.1-13.7,0.3-27.3,0.4-41c0.1-9.4,0.2-18.9,0.2-28.3c0-2,0.4-3,2.8-3.4
			c14.7-2.5,29.5-4.7,44.3-7.1c1.7-0.3,3.3-0.6,4.9-0.8c2.3-0.4,3.2,0.4,2.9,2.6c-0.8,6.1-1.7,12.1-2.6,18.2c-0.2,1.5-0.6,3-0.7,4.5
			c0,2-1.2,2.4-2.8,2.5c-1.9,0-3.8,0.1-5.8,0.1c-2,0.5-4-0.1-5.9,0.3c-1.5,0-3.1,0.1-4.6,0.1c-1.8,0.4-3.5,0.1-5.3,0.2
			c-0.5-0.1-0.9-0.2-0.6-0.8c1.1-0.8,2.3-0.6,3.5-0.6c5.7-0.2,11.3-0.5,17-0.9c2.2-0.2,3-1.1,3.3-3.2c0.8-6.1,1.6-12.2,2.6-18.3
			c0.5-2.6,0-3.1-2.6-2.7c-11.7,1.7-23.4,3.5-35.1,5.4c-3.6,0.6-7.3,1-10.9,1.9c-3,0.8-3.1,0.8-3.1,4.1c0,0.3,0,0.6,0,1
			c0.4,20.6-0.7,41.3-0.5,61.9c0,1.4,0,2.9-0.8,4.2C137.8,251.3,137.6,251.3,137.3,251.2z"/>
		<path class="st1" d="M215,200.3c-0.2,5.2-1.2,10.3-1.7,15.4c-0.5,4.9-1.1,9.8-1.7,14.7c-0.8,6.9-1.5,13.7-2.3,20.6
			c-0.7,6.1-1.4,12.2-2,18.2c-0.1,1.4,1,1.3,1.8,1.2c2.1-0.3,4.2-0.6,6.4-0.9c4.6-0.6,9.1-1.4,13.7-1.8c1.9-0.2,2.1-1.2,2.1-2.7
			c0-12.6-0.2-25.1,0.1-37.7c0.2-7.9,0.4-15.8,0.4-23.7c0-0.2-0.1-0.5,0-0.7c0.4-1.7-1.2-3.9,0.1-5c1.7-1.5,4.3-1.4,6.6-1.4
			c0.5-0.3,0.9-0.4,1,0.4c-1.7,0.3-3.5,0.6-5.2,0.8c-1.6,0.1-2,0.8-2,2.4c0.1,13.5,0,27.1,0,40.6c0,8.3-0.1,16.7,0,25
			c0,1.9-0.8,2.6-2.4,2.8c-6.9,0.8-13.8,1.7-20.6,2.8c-2.3,0.4-3-0.5-2.7-2.8c1.2-10.9,2.4-21.7,3.7-32.6c1.3-11.3,2.6-22.7,3.9-34
			c0.1-0.6,0.3-1.1,0.4-1.6C214.7,200.1,214.8,200.1,215,200.3z"/>
		<path class="st1" d="M260.6,271.3c-2.2,0.4-4.4,0.7-6.6,1.1c-1.9,0.4-2.7-0.3-2.6-2.3c0.4-7.2,0.7-14.4,1.1-21.6
			c0.4-7.6,0.8-15.2,1.3-22.7c0.8-12.5,1.6-25,2.3-37.5c0-0.4,0-0.8,0-1.2c0.1-5,0.1-5,4.9-6c4.3-0.9,8.6-1.7,12.8-2.7
			c2-0.5,2.6,0.2,2.5,2.1c-0.4,9.9-0.6,19.8-1.1,29.7c-0.1,2.3,0.8,2.1,2.3,1.9c4.1-0.6,8.2-1.2,12.3-1.8c0.2,0.3,0.2,0.5,0.1,0.8
			c-0.7,0.8-1.7,0.9-2.6,1.1c-3.3,0.5-6.6,1.1-10,1.3c-2.7,0.2-3.4-0.4-3.5-3.2c-0.1-2.9,0.2-5.8,0.3-8.6c0.1-6.3,0.6-12.6,0.6-18.9
			c0-2.7-0.3-2.9-3-2.4c-3.8,0.7-7.5,1.6-11.3,2.4c-1.6,0.3-2.5,1.2-2.7,2.9c-0.2,1.3-0.3,2.5-0.3,3.8c-0.1,7.4-0.8,14.8-1.3,22.3
			c-0.4,6.4-0.7,12.8-1.1,19.1c-0.5,8.3-0.7,16.6-1.3,24.9c-0.3,4-0.2,8-0.5,12c-0.2,2.5,0.4,2.9,3,2.7c1.2-0.1,2.4-0.5,3.6-0.2
			C260.2,270.6,260.6,270.7,260.6,271.3z"/>
		<path class="st1" d="M84.8,223c0.8-1.8,1.1,0.3,1.1,0.3c1.4,2.8,2.8,5.6,4.1,8.4c4.1,9.1,8.2,18.2,12.2,27.3
			c1.1,2.5,2.2,5,3.3,7.4c0.6,1.3,1.4,2.1,3.1,1.7c4.9-1.1,9.8-2,14.7-2.9c1.4-0.2,1.8-0.9,1.8-2.2c0.1-5.4,0.3-10.8,0.5-16.3
			c0.3-9.2,0.6-18.5,1-27.7c0.2-4.9,0.1-9.9,0.4-14.8c0.5-8.3,0.8-16.6,1-24.8c0-1.5,0.5-3,0.5-4.5c0.1,0,0.2,0,0.3,0
			c0,3,0.1,6.1,0,9.1c-0.4,13.3-0.9,26.5-1.4,39.8c-0.5,12.9-1,25.9-1.4,38.8c-0.1,2.1-0.8,3.3-3.1,3.7c-4.8,0.7-9.5,1.7-14.3,2.8
			c-2.3,0.5-3.3-0.6-4.1-2.5C99,254,93.4,241.5,87.7,229C86.8,227,85.7,225,84.8,223z"/>
		<path class="st1" d="M84.4,256.5c0.3-9.6-0.8-19.2-0.5-28.8c-0.1-1.3-0.9-2.7,0.4-3.8c0,2,0.1,4,0.1,6.1c0.5,3.1-0.1,6.2,0.4,9.3
			c0,3.1,0.1,6.2,0.1,9.4c0.5,2-0.1,4,0.3,6c0.1,3.2,0.2,6.4,0.3,9.6c0,1.1,0.1,2.2,0.2,3.4c0.1,1.4-0.4,2.2-1.9,2.5
			c-5.9,1-11.7,2.2-17.6,3.3c-2.4,0.4-2.8-0.2-2.7-2.5c0.2-6.1,0.5-12.1,0.7-18.2c0.7-21.7,1.3-43.5,2-65.2c0-1.3,0.2-2.5,1.6-2.8
			c5.8-1.3,11.6-2.6,17.6-2.9c-2.5,1.6-5.5,1.2-8.3,1.8c-2.8,0.6-5.6,0.9-8.4,1.6c-1.2,0.3-1.5,1-1.6,2.2c-0.4,5.7-0.2,11.3-0.5,17
			c-0.5,9.6-0.6,19.3-1,28.9c-0.2,5.2,0.1,10.4-0.4,15.5c-0.6,6-0.2,12-0.4,18c0,0.2,0,0.5,0,0.7c-0.5,5.3-0.5,5.4,4.8,4.4
			c4.4-0.8,8.7-1.6,13.1-2.4c1.7-0.3,2.5-1,2.3-2.9c-0.2-1.7,0-3.5,0-5.3C84.2,259.8,85,258.1,84.4,256.5z"/>
		<path class="st1" d="M357.2,187.3c0.1,10.2-1.1,20.3-1.5,30.5c-0.3,7.4-0.9,14.8-1.4,22.1c-0.6,8.7-1.2,17.5-1.6,26.2
			c-0.1,2.8,1.1,2.5,2.6,2.2c3.9-0.6,7.8-1.3,11.7-2c1.4-0.2,2.8-0.7,4.2-0.7c2.6-0.1,3.1-1.7,3.2-3.8c0.2-2.7-0.4-5.4-0.5-8.1
			c0-4.2,0-8.3,0-12.5c-0.1-7.7-0.3-15.5-0.4-23.2c0-0.5-0.7-1.9,1-1.4c0.2,15.3,0.4,30.6,0.6,45.8c0,3.3,0,3.4-3.3,4
			c-5.6,1-11.3,1.9-16.9,2.9c-2.6,0.4-3.2,0-3-2.7c0.7-12.3,1.3-24.6,2-36.9c0.8-13,1.6-26,2.4-39c0.1-1.8,0.3-3.7,0.5-5.5
			C357.9,185.8,357.4,186.6,357.2,187.3z"/>
		<path class="st1" d="M312.6,243.2c0,1.1-0.1,2.1-0.1,3.2c-0.4,1,0.1,2-0.4,3c0,0.8-0.1,1.5-0.1,2.3c-1-0.1-0.9-0.9-1-1.5
			c-0.1-1.4-0.1-2.7,0.2-4.1c0.3-0.9,0.3-1.9,0.3-2.8c0.1-6.2,0.8-12.4,1.2-18.7c0.5-7.6,1.1-15.2,1.6-22.7c0.4-5.7,0.9-11.3,1.2-17
			c0.3-4,0.4-8,0.7-12c0.1-1.7-0.5-2.5-2.4-2.2c-6,0.9-11.9,2.3-18,3.1c-1.7,0.2-2.2,1.3-2.2,2.9c-0.1,3.8-0.1,7.7,0.2,11.5
			c0.5,6.4,0.2,12.8,0.2,19.2c0,1.1,0.2,2.3-1,3c-0.3-0.1-0.4-0.4-0.3-0.7c-0.3-11.2-0.5-22.4-0.9-33.6c-0.1-2.4,0.6-3.5,3.2-3.9
			c6.7-0.9,13.3-2.2,20-3.5c2-0.4,2.8,0.3,2.6,2.2c-0.5,8.3-1,16.6-1.6,24.9c-0.4,5.4-0.8,10.8-1.2,16.2c-0.4,5-0.7,10-1.1,15.1
			c-0.4,1,0.1,2.1-0.3,3.1c0,1.1-0.1,2.1-0.1,3.2c-0.4,1.2,0.1,2.5-0.4,3.6c0,1-0.1,2.1-0.1,3.1C312.5,241.2,313,242.2,312.6,243.2z
			"/>
		<path class="st1" d="M471.5,263.2c7.6-4.3,12.3-10.9,15.5-18.8c2.8-7,3.8-14.4,4.3-21.9c0.2-2.9,0.3-5.9,0.4-8.8
			c0.1-2-0.6-3-2.8-2.8c-4.7,0.5-9.3,1-14,1.5c-4,0.5-8,1.3-12,1.8c-1.4,0.2-1.9,0.7-2,2c-0.5,4.9-0.9,9.8-0.9,14.8
			c0,1.4,0.4,1.9,2,1.6c2.2-0.4,4.6-0.1,6.9-0.5c2-0.4,2.7,0.7,2.2,2.7c-0.6,2.5-0.9,5-3,6.8c-0.1,0.2-0.3,0.2-0.4,0
			c1-2,1.9-4,2.5-6.1c0.7-2.2-0.1-2.7-2.1-2.5c-2.2,0.2-4.5,0.3-6.7,0.5c-1.9,0.2-2.6-0.4-2.5-2.4c0.4-5.2,0.7-10.4,1-15.6
			c0.1-1.5,1.1-2.1,2.4-2.2c8.9-1.1,17.7-2.3,26.6-3.4c2.6-0.3,3.6,0.6,3.6,3.6c0,3.7-0.1,7.4-0.4,11c-0.7,7.2-1.9,14.4-4.7,21.1
			c-3.2,7.6-7.9,14-15.3,18C471.5,264,471.4,263.7,471.5,263.2z"/>
		<path class="st1" d="M458.5,246c-3.1,0.9-5.3-0.2-7.6-3.7c-1.8-2.8-2.4-6-3-9.3c-0.6-3.4-0.9-6.9-0.8-10.2
			c0.3-9.8,0.4-19.8,5.2-28.9c0.9-1.8,2.1-3.4,3.6-4.7c4.3-4,9.8-2.9,12,2.6c1,2.6,2.1,5.2,2.1,8c0,1.4,0.8,1.6,1.9,1.3
			c5.4-1.4,10.7-2.9,16.1-4.4c1.5-0.4,1.4-1.7,1.2-2.7c-0.8-4.6-2.1-9-4.3-13.1c-0.8-1.6-1.9-3.1-2.9-4.7c-0.2-0.5,0-0.6,0.5-0.5
			c4.5,5.5,6.5,12.1,7.7,18.9c0.2,1.4-0.3,2.3-1.7,2.7c-5.5,1.5-11,3-16.5,4.6c-2.1,0.6-2.8-0.5-2.9-2.3c-0.2-2.6-0.8-5-1.9-7.3
			c-2.6-5.7-7.8-6.4-11.8-1.6c-3.4,4.1-4.9,9-5.9,14.1c-1.8,9.4-2.1,18.9-0.6,28.3c0.4,2.6,1,5.1,2.2,7.5
			C452.7,243.9,454.9,245.9,458.5,246z"/>
		<path class="st1" d="M137.3,251.2c0.1,0,0.3,0,0.4,0c1.3,1,1.2,2.4,1,3.7c-0.6,4.5-0.2,8.9-0.3,13.4c-0.1,1.8,0.8,2.4,2.5,2.1
			c5.7-1,11.3-2.1,17-3.2c1.5-0.3,2.2-1.2,2.1-2.7c-0.5-5.7-0.2-11.3-0.7-17c-0.3-3.8-0.3-7.7-0.2-11.5c0-2.5,0.8-3.2,3.4-3.3
			c4.9-0.1,9.7,0,14.6,0c2.9,0,3.1-0.2,3.3-3.1c0.3-4.4,0.7-8.8,1.2-13.1c0.1-1,0.1-1.9,0.7-2.8c0.2-0.2,0.4-0.4,0.7-0.5
			c1,2.9-0.3,5.8-0.3,8.7c0,3.2-0.6,6.4-0.7,9.5c-0.1,2.2-0.9,3-3,3c-5.2-0.2-10.4-0.2-15.6-0.4c-2.3-0.1-3.1,0.6-3,3
			c0.5,9.4,0.8,18.8,1.3,28.3c0.1,2.1-0.4,3-2.5,3.4c-6.6,1.1-13.1,2.5-19.7,3.7c-1.9,0.4-2.8-0.3-2.7-2.4
			C136.9,263.7,137.1,257.5,137.3,251.2z"/>
		<path class="st1" d="M239.5,196.9c-0.3-0.1-0.6-0.3-1-0.4c2.1-0.7,4.3-0.9,6.5-0.9c2.2,0,3.7-0.6,4-3.2c0.4-5.1,1-10.1,1.5-15.2
			c0-0.3,0-0.6,0-1c0.2-3.3-0.2-3.7-3.6-3.2c-7.7,1-15.4,1.8-23.1,2.9c-7.1,1-14.1,2.2-21.2,3.2c-1,0.1-2.1,0.5-3-0.3
			c4-1.1,8.1-1.4,12.2-1.9c9.1-1.3,18.1-2.5,27.2-3.7c3.6-0.5,7.1-0.7,10.7-1.1c1.5-0.2,2.1,0.5,2,1.9c-0.7,6.7-1.4,13.3-2.1,20
			c-0.1,1.2-0.7,1.9-1.7,2C245.2,196.3,242.3,196.5,239.5,196.9z"/>
		<path class="st1" d="M357.2,187.3c-0.1-0.7,0.2-1.4-0.4-1.9c0-0.5,0-1,0-1.5c0.4-1.2-0.1-2.4,0.3-3.5c0-1.8,0-3.7,0.1-5.5
			c0-1.8,0.9-2.7,2.7-3c4.7-0.7,9.4-1.4,14.1-2.2c1.9-0.3,2.7,0.6,3.2,2.1c2.6,6.5,5.2,13.1,7.9,19.6c3.4,8.2,6.9,16.3,10.3,24.5
			c0.1,0.2,0.1,0.5,0.1,0.7c0,0.2,0.1,0.6-0.1,0.7c-0.7,0.8-0.4-0.2-0.5-0.3c-2.1-5.1-4.3-10.1-6.4-15.2c-4-9.7-8-19.4-11.9-29.2
			c-0.7-1.6-1.6-2.5-3.4-2.1c-4.4,1.2-8.9,1.5-13.4,2.3c-1.5,0.3-1.8,0.9-1.8,2.2c0,3.6-0.7,7.1-0.5,10.7
			C357.7,186.4,357.7,186.9,357.2,187.3z"/>
		<path class="st1" d="M311.1,258.9c0.5,2.7-0.7,3.6-3.3,3.9c-4.6,0.7-9,1.8-13.6,2.7c-2.8,0.6-3.5,0-3.3-2.9
			c0.5-9.6,0.9-19.2,1.5-28.7c0.1-1.7-0.4-2-2-1.7c-2.8,0.4-5.7,0.5-8.6,0.8c-0.8,0.3-1.7,0.2-2.5,0.1c-0.2-0.3-0.2-0.5,0-0.8
			c4-0.9,8-1.5,12.1-1.6c1.5-0.1,2.2,1.1,2.4,2.5c0.2,1.8,0.2,3.7,0.1,5.5c-0.6,7.2-0.7,14.4-1.3,21.5c0,0.6-0.1,1.3-0.1,1.9
			c0,1.1,0.5,1.7,1.6,1.5c4.8-0.6,9.4-1.7,14.1-2.8c1-0.3,1.3-1.3,2-2C310.6,258.8,310.8,258.8,311.1,258.9z"/>
		<path class="st1" d="M128.9,174.8c-0.1,0-0.2,0-0.3,0c-5.9,0.6-11.7,1.9-17.6,2.9c-1.4,0.2-1.6,1.4-1.7,2.6
			c-0.2,3.7-0.3,7.5-0.5,11.2c-0.6,9.8-1.3,19.6-1.9,29.5c-0.1,1.6,0,3.2-0.4,4.7c-0.1-0.8-0.1-1.7-0.2-2.5c0-8.9,0.9-17.7,1.2-26.5
			c0.2-5.3,0.6-10.5,0.8-15.8c0.2-3.5,0.3-3.6,3.8-4.2c4.9-0.8,9.9-1.7,14.8-2.6C127.9,174,128.5,173.9,128.9,174.8z"/>
		<path class="st1" d="M279.4,232.5c0,0.2,0,0.3,0,0.5c-0.1,0.2-0.3,0.3-0.5,0.4c-2.4,0.1-3.4,1-3.3,3.7c0.4,9.5,0.5,19,0.9,28.5
			c0.1,2.4-0.9,3.2-3,3.5c-4.3,0.7-8.6,1.5-12.9,2.3c-0.2-0.1-0.3-0.3-0.5-0.4c0.3-1.4,1.5-1.3,2.4-1.5c3-0.7,6.1-1.2,9.2-1.7
			c2.7-0.5,3-0.9,3-3.7c0.1-8.5-0.5-16.9-0.7-25.4c0-1.1,0.1-2.1,0.2-3.1C274.8,232.5,276.3,231.6,279.4,232.5z"/>
		<path class="st1" d="M426.3,209.4c0.3,3.7-0.3,7.3-0.6,10.9c-0.6,7.9-0.1,15.6,1.6,23.2c1.4,6.2,4.3,11.6,8.6,16.3
			c-0.2,0.2-0.3,0.2-0.5,0c-5.2-4.4-7.5-10.3-9-16.7c-2.3-9.6-2-19.3-1.1-29c0.2-1.7,0.4-3.5,0.7-5.2
			C426.3,208.9,426.6,208.9,426.3,209.4z"/>
		<path class="st1" d="M105.5,225.2c-0.6,0.6-0.8,0-1-0.4c-4-9-8.1-18-12.1-26.9c-2-4.3-4-8.6-5.9-13c-0.3-0.7-1.2-1.4-0.3-2.3
			c4.1,7.9,7.3,16.2,11,24.2C100.1,212.8,102.8,219,105.5,225.2z"/>
		<path class="st1" d="M399,170.5c0,0.2,0,0.3,0,0.5c-1.3,2.4-0.9,5.1-0.9,7.7c-0.1,10-0.7,19.9-0.6,29.9c0,2.7-0.3,5.5-0.4,8.3
			c0,0.1-0.1,0.2-0.1,0.1c-0.1,0-0.3-0.1-0.4-0.1c0.1-6.5,0-13.1,0.2-19.6c0.2-8.1,0.5-16.3,0.8-24.4
			C397.5,171.9,397.4,170.7,399,170.5z"/>
		<path class="st1" d="M426.3,209.4c-0.1-0.2-0.3-0.3-0.4-0.5c0.5-5.9,2.2-11.5,4.3-17c2.6-6.9,6.3-13,11.7-18.1
			c0.6-0.6,1.3-1.1,2.1-1.5c0.6,1.1-0.5,1.4-1,1.8c-7.6,6.8-11.5,15.6-14.4,25.1C427.7,202.6,427.7,206.2,426.3,209.4z"/>
		<path class="st1" d="M164.6,198.4c0.2,0.2,0.3,0.3,0.5,0.5c0.2,0.1,0.2,0.2,0.1,0.3c-0.1,0.1-0.1,0.1-0.2,0.1
			c-5.8,0.5-5.8,0.5-5.7,6.4c0.1,2.9,0.3,5.7,0.3,8.6c0,1.5,0.8,1.5,1.8,1.3c5.6-1,11.2-2.1,16.8-3c1.5-0.2,3.3-1.5,4.6,0.6
			l-0.1,0.1c-4.5,1.2-9.1,1.5-13.7,2.5c-2.5,0.5-5,1.1-7.6,1.3c-2.4,0.3-3.3-0.5-3.4-2.8c-0.2-4.2,0.1-8.5-0.4-12.7
			c-0.3-2.3,0.9-3.3,3.3-3.4C162.2,198.1,163.4,197.8,164.6,198.4z"/>
		<path class="st1" d="M215,200.3c-0.2,0-0.3,0-0.5,0c-1.3-1-2.8-0.5-4.1-0.4c-4.4,0.3-8.7,0.8-13.1,1.3c-2.5,0.3-3.4-0.4-2.9-2.6
			c1.3-6.3,2.4-12.7,4.3-18.9c0.7,0.7,0.4,1.5,0.3,2.2c-1.2,5.2-2.3,10.4-3.4,15.6c-0.6,2.6-0.3,3,2.4,2.8c4.3-0.4,8.5-1,12.8-1.3
			C212.1,198.9,214.3,197.5,215,200.3z"/>
		<path class="st1" d="M435.4,259.9c0.2,0,0.3,0,0.5,0c1.6,0.4,2.6,1.7,4,2.5c10.4,5.6,20.9,5.9,31.6,0.9c0.2,0.2,0.4,0.3,0.5,0.5
			c-3.2,2.4-7.1,3.3-10.9,3.7c-9.2,0.9-17.8-0.7-25.1-6.8C435.8,260.4,435.6,260.1,435.4,259.9z"/>
		<path class="st1" d="M482.5,175.8c-0.2,0.2-0.3,0.3-0.5,0.5c-5.3-6.5-11.9-10.3-20.4-10c-4.3,0.1-8.7,1-12.4,3.5
			c-0.7,0.5-1.5,1.6-2.7,0.8C458.4,162,474.2,164.3,482.5,175.8z"/>
		<path class="st1" d="M467.7,241.6c0.1,0,0.3,0,0.4,0c-1.1,2.6-5.8,5.5-8.4,5.2c-0.5-0.1-0.6-0.4-0.7-0.8
			C462.6,245.8,465.4,244.3,467.7,241.6z"/>
		<path class="st1" d="M311.1,258.9c-0.2,0-0.4,0-0.5,0c-0.8-2.7-0.2-5.4,0.1-8c0.1-0.4,0.4-0.7,0.9-0.6c0,0.5-0.1,1.1,0.4,1.4
			C312.1,254.1,311.9,256.6,311.1,258.9z"/>
		<path class="st1" d="M84.7,239.2c-0.9-3.1-0.3-6.2-0.4-9.3C85,233,84.8,236.1,84.7,239.2z"/>
		<path class="st1" d="M175.1,198.8c1.9-0.8,3.9-0.3,5.9-0.3C179.1,199,177.1,198.8,175.1,198.8z"/>
		<path class="st1" d="M85.2,254.6c-0.8-2-0.3-4-0.3-6C85.4,250.5,85.3,252.6,85.2,254.6z"/>
		<path class="st1" d="M84.3,223.8c-0.9,1.2-0.2,2.6-0.4,3.8c-0.9-1.3-0.4-2.7-0.4-4.1c0-0.6,0.6-0.3,0.9-0.2
			C84.3,223.5,84.3,223.7,84.3,223.8z"/>
		<path class="st1" d="M165,199.3c0-0.1,0-0.3,0-0.4c1.8,0,3.6,0,5.5,0.1C168.7,199.4,166.9,199.4,165,199.3z"/>
		<path class="st1" d="M292.8,209.8c0,0.2,0,0.4,0,0.6c-0.7,1.7-1.8,1.2-2.9,0.5c0-0.1,0-0.3,0-0.4
			C290.9,210.2,291.8,210,292.8,209.8z"/>
		<path class="st1" d="M313,237.1c0.1-1.2-0.4-2.5,0.4-3.6C313.5,234.7,313.6,235.9,313,237.1z"/>
		<path class="st1" d="M357.1,180.4c0,1.2,0.4,2.4-0.3,3.5C356.7,182.8,356.7,181.6,357.1,180.4z"/>
		<path class="st1" d="M278.9,233.4c0.2-0.1,0.3-0.3,0.5-0.4c0.8,0,1.7,0,2.5,0.1C280.9,233.6,279.9,233.4,278.9,233.4z"/>
		<path class="st1" d="M312.6,243.2c0-1-0.4-2.1,0.3-3C313,241.2,313.1,242.2,312.6,243.2z"/>
		<path class="st1" d="M312.1,249.4c0.1-1-0.4-2.1,0.4-3C312.5,247.5,312.6,248.5,312.1,249.4z"/>
		<path class="st1" d="M313.5,230.3c0-1-0.4-2.1,0.3-3.1C313.9,228.2,314.1,229.3,313.5,230.3z"/>
		<path class="st1" d="M321.6,262c0,1,0.4,2.1-0.3,3.1C321.2,264.1,321,263,321.6,262z"/>
		<path class="st1" d="M326,266.6c0,0.3,0,0.6,0,0.9c-0.3,0-0.7,0-1,0c-0.3-0.1-0.6-0.3-1-0.4C324.4,265.8,325.2,266.1,326,266.6z"
			/>
		<path class="st1" d="M322,256.3c0.1,0.9,0.3,1.8-0.3,2.6C321.6,258,321.6,257.1,322,256.3z"/>
		<path class="st1" d="M321.6,267.6c0.8,0,1.7,0,2.5,0C323.3,268.1,322.4,268.3,321.6,267.6z"/>
		<path class="st1" d="M414.8,249.3c0,3.4,0,6.7,0,10.1c-1-2.3-0.3-4.6-0.4-7c-0.1-1.5,0-3,0-4.6
			C415.1,248.2,414.7,248.8,414.8,249.3z"/>
		<path class="st1" d="M418.2,168.6c1.1,2,0.2,4.2,0.5,6.2C417.6,172.8,418.4,170.7,418.2,168.6z"/>
		<path class="st1" d="M84.4,256.5c1,1.5,0.3,3.2,0.5,4.8C83.9,259.8,84.6,258.1,84.4,256.5z"/>
		<path class="st1" d="M326,266.6c-0.7,0.1-1.4-0.2-1.9,0.5c-1.2,0.1-1.9-0.1-1.9-1.6c-0.1-5.5,0.8-11,1.2-16.4
			c0.2-2.9,0.2-5.9,0.6-8.8c0.7-5.5,0.7-11.1,1.1-16.7c0.6-8.2,1.4-16.5,1.8-24.7c0.2-3.4,0.4-6.8,0.6-10.3c0.2-3.7,0.3-7.3,0.5-11
			c0-1.1,0.5-1.8,1.5-2.2c5-1.8,10-3.7,15.1-5.5c2.6-0.9,3-0.4,2.7,2.3c-0.1,0.8-0.1,1.6,0,2.4c0.2,9.1-0.9,18.2-1.1,27.2
			c-0.2,8.3-1,16.7-1.4,25c-0.5,9.7-1.4,19.4-1.9,29c-0.1,2-0.4,4-0.4,5.9c0,1.4-0.6,2.4-1.9,2.6C335.6,265.3,330.8,265.9,326,266.6
			z"/>
		<path class="st1" d="M164.6,198.4c-1.2,0.7-2.5,0.5-3.7,0.4c-1.8-0.1-2.7,0.7-2.5,2.3c0.7,4.6,0.3,9.2,0.4,13.8
			c0,1.6,1.1,1.8,2.3,1.6c5.8-1,11.5-2.2,17.3-3.1c1.4-0.2,2.9-0.8,4.4-0.1c-0.9,5.2-1.2,10.6-1.5,15.9c-0.1,0.8-0.4,1.6-0.3,2.3
			c0.2,1.9-0.9,2-2.3,2c-5.1-0.1-10.2,0-15.3,0c-3.5,0-3.4,0-3.5,3.4c-0.2,7.3,0.7,14.6,0.6,22c0,2.3,0.4,4.6,0.4,6.9
			c0,1.1-0.2,1.7-1.5,2c-6.5,1.2-12.9,2.5-19.4,3.7c-1.3,0.3-2.3,0-2.2-1.8c0.3-5-0.5-10,0.5-15c0.2-1.1-0.2-2.2-0.5-3.3
			c0.6-2.3,0.5-4.7,0.5-7.1c-0.2-20.6,0.9-41.2,0.5-61.8c0-1.8,0.6-2.4,2.4-2.7c10.3-2.1,20.8-3.6,31.2-5.2
			c5.7-0.9,11.4-1.8,17.2-2.7c2-0.4,2.9,0.2,2.6,2.3c-0.7,4.9-1.4,9.9-2.1,14.8c-0.3,1.9-0.5,3.8-0.7,5.7c-0.2,2-0.9,3-3.3,3.1
			C178.7,197.9,171.7,198.4,164.6,198.4z"/>
		<path class="st1" d="M289.9,210.9c1-0.2,2,0.4,2.9-0.5c0.4-0.3,0.5-0.8,0.5-1.3c0-6.2,0.2-12.3-0.1-18.5
			c-0.3-4.8-0.3-9.7-0.4-14.5c0-1.7,0.3-2.6,2.2-2.9c6.8-1.1,13.6-2.4,20.4-3.6c1.1-0.2,1.5,0.3,1.4,1.3c-0.2,4.5-0.3,9.1-0.6,13.6
			c-0.2,2.7-0.6,5.3-0.8,8c-0.4,5.2-0.5,10.5-1,15.7c-0.7,7.8-0.9,15.7-1.8,23.5c-0.5,3.9-0.4,7.8-0.6,11.7
			c-0.6,0.7,0.1,1.7-0.5,2.4c0,1.4,0,2.9,0,4.3c-0.9,1-0.4,2.1-0.4,3.2c0,1.8-0.1,3.6-0.5,5.4c0,1.9-0.9,2.7-2.9,3
			c-4.5,0.7-9,1.8-13.5,2.7c-1.5,0.3-2.5,0.1-2.3-1.9c0.7-7.4,0.6-14.9,1.4-22.3c0.3-2.4,0.1-4.8,0.1-7.2c0-1.4-0.6-2-2.3-1.9
			c-3.9,0.2-7.7,1.4-11.6,1.1c-1,0.2-2,0.3-3,0.5c-0.8,0.1-1.2,0.7-1.3,1.5c-0.2,6.3-0.1,12.7,0.3,19c0.3,4.3,0.1,8.6,0.2,12.9
			c0,1.3-1,1.5-2,1.7c-4.1,0.8-8.2,1.6-12.4,2.4c-0.4,0.1-0.7,0.3-1,0.5c-2,0.2-4,0.3-5.9,0.5c-1.2,0.1-1.8-0.3-1.7-1.6
			c0.3-5.2,0.6-10.5,0.9-15.7c0.2-3.2,0.4-6.4,0.4-9.5c0.1-7.9,0.9-15.7,1.2-23.6c0.2-7.7,0.9-15.4,1.5-23.1
			c0.3-4.4-0.2-8.8,0.7-13.1c0.3-1.3,0.7-2,2-2.3c5-1.1,9.9-2.1,14.9-3.2c1.3-0.3,1.5,0.5,1.5,1.5c-0.1,3.4-0.3,6.9-0.3,10.3
			c-0.1,6.5-0.6,12.9-0.6,19.4c0,2,0.2,2.9,2.8,2.5c3.8-0.6,7.7-1,11.5-1.6C289.2,211.3,289.6,211,289.9,210.9z"/>
		<path class="st1" d="M311.6,245.9c0.1-0.8-0.3-1.7,0.5-2.4C311.9,244.3,312.3,245.2,311.6,245.9z"/>
	</g>
	<g class="st4">
		<path class="st1" d="M488.2,138.9c-1.6-2.1-3.3-4.3-4.9-6.4c-1.5-2-1.5-2.1,0.7-3.6c2.2-1,3.8-2.9,5.7-4.3c0.5-0.4,1-0.8,1.4-1.2
			c1.8-1.5,2.1-1.4,3.6,0.3l0,0c1.2,1.7,2.1,3.5,3.7,4.8c0.6,0.7,1.2,1.4,1.8,2.1c1.5,1.9,1.4,2-0.6,3.4c-1.4,0.4-2.3,1.5-3.2,2.6
			c-0.2,0.5-0.5,0.7-1,0.9c-1.3,0.3-2,1.5-3,2.2c-1.9,1.3-1.9,1.4-3.5-0.4C488.7,139.1,488.4,139,488.2,138.9z"/>
		<path class="st1" d="M528.7,164.3c1.5,1.7,3,3.4,4.6,5.1c0.7,0.7,0.5,1.3,0,1.9c-0.6,0.6-1.3,1.1-2,1.7c-2.4,1.3-4.1,3.5-6.1,5.2
			c-1.6,1.3-2,1.4-3.4-0.2c-1.2-1.4-2.3-2.8-3.6-4.1c-0.7-1.2-1.7-2.2-2.6-3.2c-0.9-1.1-0.9-2.1,0.2-2.9c2.2-1.7,4.2-3.8,6.3-5.6
			c0.1-0.1,0.3-0.3,0.4-0.4c2-1.7,2.2-1.7,3.8,0.2C527.2,162.9,527.6,164,528.7,164.3z"/>
		<path class="st1" d="M476,148c0.4-0.3,0.9-0.3,1.4-0.3c2.8,0,5.5-0.6,8.2-1c1.4-0.3,2.4,0,2.8,1.4l0,0c0.3,3.2,0.9,6.4,1.5,9.6
			c0.3,2,0.1,2.5-1.8,2.8c-3.3,0.4-6.5,1.1-9.8,1.5c-1.4,0.2-2-0.2-2.2-1.6c-0.3-3.3-0.8-6.5-1.5-9.8
			C474.3,149.2,474.8,148.4,476,148z"/>
		<path class="st1" d="M508,128.1c1.7-3.2,3.3-6.5,5-9.7c0.6-1.1,1.5-1.3,2.5-0.8c3.1,1.6,6.2,3.1,9.3,4.7c1.1,0.6,1.4,1.4,0.8,2.5
			c-1.6,3.3-3.3,6.5-4.9,9.8c-0.5,1-1.3,1.3-2.4,0.8c-3.2-1.7-6.3-3.4-9.5-4.9C507.6,129.8,507.5,129.1,508,128.1z"/>
		<path class="st1" d="M476,148c-1.7,1.3-1,3-0.7,4.6c0.4,2.4,0.9,4.8,1,7.3c0.1,1.2,0.5,1.9,2,1.7c3.3-0.6,6.6-1,9.9-1.5
			c1.3-0.2,1.7-0.8,1.4-2.1c-0.5-2.7-0.9-5.4-1.3-8c-0.1-0.6-0.2-1.2,0.1-1.9c1,3.5,1.3,7.1,1.9,10.7c0.2,0.9-0.3,1.6-1.3,1.8
			c-3.8,0.6-7.6,1.2-11.3,1.8c-0.9,0.1-1.6-0.3-1.7-1.3c-0.5-3.7-1.1-7.4-1.7-11.1C474,148.4,474.6,147.9,476,148z"/>
		<path class="st1" d="M526,141.1c3-1.4,6.4-1.5,9.6-2.1c4-0.8,4-0.6,4.6,3.4c0.4,2.7,0.9,5.3,1.3,8c0.3,1.7-0.2,2.7-2,2.8
			c-0.9,0.1-1.8,0.2-2.8,0.4c-0.4,0.1-0.5-0.2-0.4-0.5c0.6-0.8,1.5-0.7,2.2-0.8c1.3-0.1,2-0.8,1.8-2.2c-0.5-3.1-1-6.1-1.6-9.2
			c-0.3-1.6-1.6-1.2-2.6-1c-3,0.7-6,1.2-8.9,1.8c-0.4,0.1-0.7,0.2-1.1,0.1C525.8,141.6,525.7,141.4,526,141.1z"/>
		<path class="st1" d="M500.2,167.3c2.1,0.8,4.2,1.6,6.3,2.4c1,0.4,1.4,1,0.9,2.1c-1.5,3.4-2.9,6.7-4.3,10.1
			c-0.9,2.1-2.3,1.1-3.6,0.7c0.1-0.4,0.4-0.5,0.7-0.6c1.2-0.1,1.9-0.7,2.3-1.9c0.9-2.4,2-4.7,3-7c0.8-1.8,0.7-2-1.1-2.8
			c-1.9-0.8-3.8-1.4-5.6-2.3c-0.6-0.3-1.2-0.4-1.5-1.1c0-0.3,0.1-0.4,0.3-0.4C498.6,166.8,499.5,166.8,500.2,167.3z"/>
		<path class="st1" d="M500,182.4c-0.2,0.1-0.3,0.1-0.5,0.2c-2.9-1.1-5.8-2.2-8.7-3.4c-0.7-0.3-1.3-0.8-0.9-1.9
			c1.5-3.7,2.9-7.4,4.6-11c0.8-1.7,2-0.4,3.1-0.1c0.1,0.1,0.1,0.2,0.1,0.2c-0.1,0.1-0.1,0.1-0.1,0.1l0,0c-1.8,0.3-2.7,1.5-3.2,3.2
			c-0.6,2-1.5,3.9-2.4,5.7c-1,2.1-0.9,2.2,1.1,3.1c1.8,0.8,3.7,1.6,5.6,2.3C499.2,181.3,500.1,181.3,500,182.4z"/>
		<path class="st1" d="M526,141.1c0.1,0.2,0.2,0.4,0.3,0.6c1,3.2,1,6.6,1.7,9.9c0.5,2.4,0.5,2.4,2.9,2.1c1.2-0.1,2.3-0.5,3.5-0.7
			c0.7-0.1,1.4-0.4,2,0.1c0.1,0.2,0.2,0.3,0.3,0.5c-2.6,0.5-5.1,1.1-7.7,1.6c-1.2,0.2-1.7-0.3-1.9-1.4c-0.5-3.6-1.1-7.2-1.7-10.9
			C525.3,142.1,525.3,141.5,526,141.1z"/>
		<path class="st1" d="M518.4,173.9c1.4,1,2.5,2.2,3.5,3.6c1.3,1.7,1.7,1.8,3.3,0.3c1.8-1.6,3.5-3.2,5.3-4.7c0.2-0.2,0.5-0.7,0.8,0
			c-2,1.9-4.1,3.8-6.1,5.7c-1.2,1.1-2.2,1.3-3.3-0.2c-1.1-1.5-2.4-2.9-3.6-4.3c-0.1-0.1-0.1-0.2,0-0.3
			C518.3,173.9,518.4,173.9,518.4,173.9z"/>
		<path class="st1" d="M518.4,173.9c0,0.1-0.1,0.2-0.1,0.4c-1-1.2-2-2.3-3-3.5c-0.9-1.1-0.9-2.1,0.2-3.1c2.3-1.9,4.5-3.9,6.8-5.8
			c0.2,0.1,0.2,0.4,0.3,0.5c-2.1,1.8-3.9,3.8-6.2,5.5c-1.1,0.8-1.3,1.7-0.3,2.8C517,171.7,518.1,172.5,518.4,173.9z"/>
		<path class="st1" d="M494.7,123.7c-1.3-1.4-2.5-0.9-3.7,0.2c-1.9,1.7-3.8,3.2-5.8,4.7c-0.3,0.2-0.7,0.9-1.2,0.2
			c2.6-2.2,5.2-4.4,7.9-6.5C493.2,121.3,493.9,121.7,494.7,123.7z"/>
		<path class="st1" d="M488.4,148c-0.8-1.1-1.8-1.3-3.1-1c-2.1,0.4-4.3,0.7-6.5,1c-0.5,0.1-1.1,0.4-1.5-0.4c3-0.5,6-1,9-1.5
			C487.8,145.9,488.5,146.5,488.4,148z"/>
		<path class="st1" d="M488.2,138.9c0.2-0.1,0.4-0.2,0.5-0.2c0.7,0.4,1.1,1.8,2,1.5c1-0.3,1.7-1.3,2.6-1.7c0.7-0.3,0.8-1.8,2.1-1
			c-0.8,0.7-1.6,1.4-2.4,2.1C490.6,141.6,489.7,141.6,488.2,138.9z"/>
		<path class="st1" d="M522.5,162.4c-0.1-0.2-0.2-0.4-0.3-0.5c2.1-2.3,2.5-2.3,4.4-0.1c0.7,0.8,1.4,1.7,2.1,2.5
			c-1.2,0.3-1.4-0.8-1.9-1.4C524.8,160.6,524.8,160.6,522.5,162.4z"/>
		<path class="st1" d="M498.4,128.5c-2.1-0.9-2.9-2.8-3.7-4.8C496.3,125,497.2,126.8,498.4,128.5z"/>
		<path class="st1" d="M496.4,136.5c0.5-1.3,2-2.6,3.2-2.6C498.5,134.8,497.4,135.7,496.4,136.5z"/>
		<path class="st1" d="M497.5,166.6c0-0.1,0.1-0.2,0.1-0.3c0.9,0.3,1.9,0.3,2.6,1.1C499.3,167.1,498.4,166.9,497.5,166.6z"/>
		<path class="st1" d="M492.1,136.4c1.4-1.6,3.2-2.7,4.9-4c0.3,0.1,0.6-0.6,0.7-0.1C497.6,132.9,492.9,136.4,492.1,136.4z"/>
		<path class="st1" d="M496.2,130.5c-0.3-0.4-0.6-0.7-0.8-1.1C496.2,129.4,496.5,129.7,496.2,130.5z"/>
		<path class="st1" d="M523.7,175.8c1.8-1.6,3.6-3.1,5.4-4.7c0.3-0.3,0.9-0.4,0.7-1c-0.1-0.3-0.1-0.5,0.2-0.7c0.8,0.7,0.8,1.3,0,2
			c-1.9,1.6-3.7,3.2-5.6,4.7c-0.4,0.3-0.8,0.8-1.2,0C523.4,175.9,523.6,175.9,523.7,175.8z"/>
		<path class="st1" d="M530,169.4c-0.1,0.2-0.1,0.5-0.2,0.7c-1.7-1.9-3.5-3.7-5-5.9c1.3,0,1.6,1.2,2.3,1.8
			C528.1,167.1,529,168.3,530,169.4z"/>
		<path class="st1" d="M523.7,175.8c-0.2,0.1-0.3,0.2-0.5,0.3c-1.1-1-2.2-1.9-2.4-3.5C521.8,173.7,522.8,174.7,523.7,175.8z"/>
		<path class="st1" d="M477.4,151.2c0.4,2.2,0.8,4.4,1.1,6.6c0.1,1,0.5,1.1,1.4,0.9c2.2-0.4,4.4-0.7,6.6-1c0.3,0.9-0.5,0.7-0.9,0.7
			c-2,0.4-4,0.7-5.9,1.1c-1.1,0.3-1.6-0.2-1.8-1.1c-0.4-2.3-0.8-4.6-1.1-6.9C476.8,151.2,477.1,151.1,477.4,151.2z"/>
		<path class="st1" d="M485.5,149.6c-2.6,0.1-5.1,1-7.7,0.9c-0.1-0.2-0.8-0.4-0.2-0.5c2.6-0.5,5.1-0.9,7.7-1.2
			C485.9,148.8,486.1,149.2,485.5,149.6z"/>
		<path class="st1" d="M525,124.8c-1.7,3.2-3.3,6.4-5,9.5c-0.4,0.8-1.2,0.6-1.8,0.3c-2.9-1.5-5.7-3-8.5-4.4
			c-1.1-0.6-1.5-1.2-0.7-2.5c1.6-2.6,3.1-5.4,4.3-8.2c0.6-1.4,1.4-1.5,2.5-0.9c2.7,1.3,5.4,2.6,8.1,4
			C524.8,122.9,525.5,123.5,525,124.8z"/>
		<path class="st1" d="M536.4,153c-2.3,0.5-4.7,1-7,1.4c-0.6,0.1-1.3,0.3-1.5-0.6c-0.7-4-1.6-8-1.7-12.1c1.3-0.9,2.9-0.7,4.3-1.1
			c2.3-0.6,4.6-0.9,6.9-1.3c1-0.2,1.6,0.1,1.7,1.2c0.5,3.1,1.2,6.2,1.6,9.3c0.3,2.3-0.2,2.8-2.5,3C537.6,152.8,537,152.9,536.4,153z
			"/>
		<path class="st1" d="M500,182.4c-1.4-1.3-3.3-1.3-4.9-2.1c-1.1-0.6-2.3-1.2-3.6-1.6c-1.1-0.3-1.2-1.1-0.7-2.1
			c1.3-2.7,2.6-5.4,3.5-8.3c0.5-1.6,1.5-2.5,3.3-1.7c2.4,1.6,5.2,2.5,7.9,3.4c1.4,0.5,1.7,1,1.2,2.3c-1.3,3.1-2.9,6.1-4,9.4
			C502.1,182.9,500.9,182.3,500,182.4z"/>
		<path class="st1" d="M515,120.6c2.8,0.7,5.3,1.8,7.6,3.6c0.2,0.2,0.6,0.4,0.3,0.8c-1.4,2.3-2.1,5.1-4.2,7
			c-0.1-0.2-0.2-0.4-0.2-0.6c0.4-1.8,1.4-3.4,2.2-5c0.7-1.2,0.5-1.9-0.8-2.5c-1.8-0.8-3.6-1.5-5.1-2.8
			C514.8,120.9,514.8,120.7,515,120.6z"/>
		<path class="st1" d="M518.9,131.5c0,0.2-0.1,0.3-0.1,0.5c-2.1,0.5-3.4-1.3-5.1-2c-3.4-1.6-3.4-1.8-1.5-5.1
			c0.9-1.5,1.2-3.3,2.7-4.3c0,0.1-0.1,0.3-0.1,0.4c0.3,2.1-1.1,3.5-1.9,5.2c-0.9,1.9-1,1.8,0.9,2.7
			C515.5,129.8,517.2,130.7,518.9,131.5z"/>
		<path class="st1" d="M528.9,143.3c-0.1,2.7,0.8,5.3,1.1,7.9c0.1,0.5,0.5,0.4,0.9,0.4c2.2-0.4,4.3-0.8,6.5-1.2
			c0.6-0.1,0.8-0.4,0.7-1c-0.1-0.7-0.2-1.5-0.3-2.2c0.1-0.2,0.2-0.2,0.4-0.3c0,0.1,0.1,0.1,0.1,0.2c0.5,3.7,0.5,3.7-3.2,4.4
			c-1.5,0.3-3.1,0.5-4.6,0.9c-1.2,0.3-1.4-0.2-1.4-1.1c0-2.4-0.4-4.6-1-6.9C527.9,143.4,528,143.3,528.9,143.3z"/>
		<path class="st1" d="M538.2,146.8c-0.1,0.1-0.3,0.2-0.4,0.3c-0.2-1.3-0.6-2.5-0.7-3.8c-0.1-1.1-0.6-1.5-1.7-1.1
			c-1.4,0.4-2.8,0.8-4.2,0.7c-0.2-0.3-0.2-0.5,0.1-0.6c1.9-0.1,3.7-0.5,5.4-1.3c0.6-0.3,0.6,0.2,0.7,0.5
			C537.7,143.2,538.2,145,538.2,146.8z"/>
		<path class="st1" d="M493,176.8c-0.2-0.3-0.3-0.6-0.1-0.9c1.2-1.8,1.9-3.8,2.6-5.8c0.5-1.3,1-1.8,2.5-1c1.6,0.8,3.3,1.6,5,2.2
			c1.8,0.6,1.7,1.5,1.1,2.8c-0.7-0.1-0.5-0.7-0.7-1.1c-1.6-1.5-3.8-1.9-5.7-2.7c-0.8-0.4-1,0.4-1.3,1c-0.8,1.7-1.3,3.7-2.5,5.2
			C493.6,176.7,493.3,176.8,493,176.8z"/>
		<path class="st1" d="M504,172.8c-0.1,0.4-0.3,0.8,0,1.2c-1.2,1.4-1.2,3.3-2.1,4.8c-0.6,1.1-1.3,1.6-2.4,1
			c-2.2-1.1-4.7-1.3-6.5-3.1c0.1-0.1,0.3-0.2,0.4-0.3c1.6,0.1,3,0.8,4.4,1.5c2.6,1.1,2.7,1.1,3.8-1.4c0.4-0.9,0.8-1.8,1.3-2.7
			C503.1,173.3,503.2,172.7,504,172.8z"/>
	</g>
</g>
</svg>
